<svg width="32" height="32" viewBox="0 0 32 32" fill="none" xmlns="http://www.w3.org/2000/svg">
<g id="Icon/Social network/Facebook">
<path id="Facebook" fill-rule="evenodd" clip-rule="evenodd" d="M28.8 0.00012207H3.2C1.43269 0.00012207 0 1.43281 0 3.20012V28.8001C0 30.5674 1.43269 32.0001 3.2 32.0001H16V19.9531H11.2V15.4354H16V13.0094C16 8.4165 18.3835 6.40012 22.2799 6.40012C24.1094 6.40012 25.0937 6.53039 25.5719 6.59368L25.6 6.59739V10.9178H22.9424C21.2885 10.9178 20.8 11.7731 20.8 13.5049V15.4354H25.5585L24.9006 19.9531H20.8V32.0001H28.8C30.5673 32.0001 32 30.5674 32 28.8001V3.20012C32 1.43281 30.5673 0.00012207 28.8 0.00012207Z" fill="white"/>
</g>
</svg>
