<svg width="308" height="178" viewBox="0 0 308 178" fill="none" xmlns="http://www.w3.org/2000/svg">
<g clip-path="url(#clip0_725_2021)">
<path d="M195.069 171.056L162.29 171.034C161.667 171.034 161.055 170.866 160.518 170.548C159.982 170.231 159.54 169.775 159.24 169.228C158.94 168.682 158.792 168.065 158.811 167.441C158.831 166.818 159.017 166.212 159.351 165.685L175.758 139.834C176.072 139.339 176.507 138.931 177.022 138.648C177.536 138.365 178.114 138.217 178.701 138.218C179.288 138.218 179.866 138.367 180.38 138.65C180.894 138.934 181.328 139.342 181.642 139.839L198.014 165.711C198.347 166.238 198.533 166.845 198.552 167.468C198.571 168.091 198.422 168.708 198.121 169.254C197.82 169.8 197.378 170.255 196.841 170.572C196.304 170.89 195.692 171.057 195.069 171.056Z" fill="#F4F4F4"/>
<path d="M176.143 164.327C176.163 163.827 176.33 163.344 176.622 162.938C176.915 162.532 177.321 162.221 177.789 162.044C178.257 161.867 178.766 161.831 179.254 161.941C179.743 162.051 180.188 162.303 180.534 162.664C180.881 163.025 181.113 163.48 181.203 163.972C181.293 164.464 181.236 164.972 181.04 165.433C180.844 165.893 180.516 166.285 180.099 166.561C179.681 166.836 179.191 166.983 178.691 166.983C178.347 166.982 178.007 166.913 177.691 166.778C177.375 166.643 177.09 166.445 176.852 166.197C176.614 165.949 176.428 165.656 176.307 165.335C176.185 165.013 176.129 164.671 176.143 164.327ZM176.727 151.2L176.587 147.382L180.821 147.385L180.677 151.203L180.082 159.991H177.309L176.727 151.2Z" fill="#4FE0D2"/>
<path d="M295.673 166.063L265.611 166.043C265.039 166.043 264.478 165.888 263.986 165.597C263.494 165.305 263.089 164.887 262.814 164.386C262.539 163.885 262.403 163.319 262.422 162.747C262.44 162.175 262.611 161.619 262.918 161.136L277.964 137.429C278.253 136.974 278.651 136.6 279.123 136.34C279.595 136.081 280.125 135.945 280.664 135.946C281.202 135.946 281.732 136.083 282.203 136.343C282.675 136.602 283.073 136.977 283.361 137.432L298.376 161.16C298.682 161.644 298.852 162.2 298.869 162.772C298.887 163.344 298.75 163.91 298.474 164.411C298.198 164.912 297.792 165.33 297.299 165.62C296.806 165.911 296.245 166.064 295.673 166.063Z" fill="#F4F4F4"/>
<path d="M278.315 159.892C278.334 159.433 278.487 158.99 278.755 158.618C279.024 158.246 279.396 157.961 279.825 157.799C280.254 157.636 280.721 157.604 281.169 157.705C281.617 157.806 282.025 158.036 282.342 158.367C282.66 158.699 282.873 159.116 282.956 159.567C283.038 160.019 282.986 160.484 282.806 160.906C282.626 161.328 282.326 161.688 281.943 161.941C281.56 162.194 281.111 162.328 280.652 162.328C280.337 162.328 280.025 162.264 279.735 162.14C279.445 162.016 279.183 161.835 278.965 161.607C278.747 161.38 278.577 161.111 278.465 160.816C278.353 160.521 278.302 160.207 278.315 159.892ZM278.85 147.853L278.722 144.351L282.606 144.354L282.474 147.856L281.928 155.916H279.386L278.85 147.853Z" fill="#4FE0D2"/>
<path d="M174.508 71.9396L139.183 71.9157C138.511 71.9148 137.851 71.7336 137.273 71.391C136.695 71.0484 136.219 70.5569 135.896 69.9679C135.572 69.3788 135.413 68.7138 135.434 68.0421C135.455 67.3704 135.656 66.7167 136.016 66.1491L153.697 38.2892C154.036 37.7553 154.505 37.3158 155.06 37.0114C155.614 36.7071 156.237 36.5477 156.869 36.5481C157.502 36.5485 158.124 36.7087 158.678 37.0138C159.232 37.3189 159.701 37.759 160.039 38.2934L177.683 66.1783C178.042 66.7464 178.242 67.4003 178.262 68.0719C178.282 68.7435 178.122 69.4081 177.797 69.9965C177.473 70.585 176.997 71.0757 176.418 71.4174C175.84 71.7592 175.18 71.9395 174.508 71.9396Z" fill="#F4F4F4"/>
<path d="M154.111 64.6854C154.133 64.1466 154.313 63.6261 154.629 63.1886C154.944 62.7512 155.381 62.4162 155.886 62.2253C156.39 62.0344 156.939 61.9959 157.465 62.1148C157.991 62.2336 158.471 62.5045 158.844 62.8937C159.218 63.283 159.468 63.7733 159.565 64.3039C159.662 64.8345 159.601 65.3818 159.389 65.8778C159.177 66.3738 158.824 66.7966 158.374 67.0936C157.924 67.3906 157.396 67.5487 156.857 67.5483C156.487 67.5477 156.12 67.4724 155.78 67.3268C155.439 67.1813 155.131 66.9685 154.875 66.7011C154.619 66.4338 154.419 66.1175 154.287 65.7712C154.156 65.4248 154.096 65.0555 154.111 64.6854ZM154.74 50.5396L154.588 46.4248L159.152 46.4275L158.996 50.5427L158.356 60.0133H155.367L154.74 50.5396Z" fill="#4FE0D2"/>
<path d="M258.894 101.36L225.85 101.337C225.221 101.337 224.604 101.168 224.063 100.847C223.522 100.527 223.077 100.067 222.774 99.5164C222.472 98.9653 222.323 98.3432 222.343 97.7148C222.362 97.0864 222.551 96.4749 222.888 95.9441L239.429 69.8833C239.746 69.3836 240.184 68.9722 240.703 68.6873C241.222 68.4024 241.804 68.2532 242.396 68.2537C242.988 68.2541 243.57 68.4041 244.088 68.6897C244.606 68.9753 245.044 69.3874 245.361 69.8875L261.866 95.9703C262.202 96.5017 262.389 97.1137 262.408 97.7423C262.427 98.3708 262.277 98.993 261.973 99.5436C261.669 100.094 261.223 100.553 260.682 100.873C260.14 101.192 259.523 101.361 258.894 101.36Z" fill="#F4F4F4"/>
<path d="M239.813 94.5759C239.834 94.0719 240.002 93.5851 240.297 93.176C240.592 92.7669 241.001 92.4536 241.473 92.275C241.945 92.0964 242.459 92.0605 242.951 92.1716C243.443 92.2828 243.891 92.5361 244.241 92.9001C244.59 93.2642 244.824 93.7228 244.915 94.2191C245.006 94.7153 244.948 95.2272 244.75 95.6912C244.552 96.1552 244.222 96.5507 243.801 96.8287C243.38 97.1066 242.887 97.2546 242.383 97.2544C242.036 97.2539 241.693 97.1835 241.374 97.0473C241.056 96.9111 240.768 96.7121 240.528 96.462C240.288 96.2119 240.101 95.9159 239.978 95.5918C239.855 95.2678 239.799 94.9222 239.813 94.5759ZM240.402 81.3426L240.261 77.4929L244.53 77.496L244.385 81.3452L243.785 90.2054H240.989L240.402 81.3426Z" fill="#4FE0D2"/>
<path d="M211.128 83.5789C210.958 83.2424 210.688 82.967 210.355 82.7908C210.022 82.6146 209.642 82.5462 209.269 82.5951C209.272 82.5619 209.264 82.5285 209.248 82.4995C209.23 82.4772 209.207 82.4598 209.181 82.4492C209.155 82.4385 209.127 82.4349 209.099 82.4388L210.359 81.5355C210.736 81.2774 211.007 80.8916 211.122 80.4493C211.236 80.007 211.187 79.5382 210.983 79.1294C210.768 78.7324 210.414 78.4293 209.988 78.2788C209.563 78.1283 209.096 78.1411 208.68 78.3149C208.683 78.297 208.671 78.28 208.668 78.2618L209.186 77.8903C209.54 77.6457 209.799 77.2862 209.919 76.8727C210.038 76.4591 210.012 76.0169 209.843 75.6209C209.732 75.3747 209.567 75.1563 209.362 74.9814C209.156 74.8065 208.914 74.6793 208.653 74.6092C208.393 74.5391 208.12 74.5277 207.854 74.5759C207.588 74.6241 207.337 74.7306 207.117 74.8879L205.922 75.7445C205.919 75.7373 205.922 75.729 205.917 75.7225C205.912 75.7161 205.9 75.7134 205.893 75.7062C206.167 75.3975 206.329 75.0047 206.35 74.5923C206.372 74.1798 206.253 73.7722 206.013 73.4363C205.449 72.5288 204.147 72.7155 203.374 73.2683L196.341 78.1244L197.598 76.0082C197.851 75.6009 197.94 75.1126 197.848 74.6421C197.755 74.1716 197.486 73.7539 197.097 73.4735C196.892 73.3357 196.66 73.2413 196.417 73.1961C196.173 73.1508 195.923 73.1557 195.682 73.2103C195.44 73.2649 195.213 73.3682 195.012 73.5139C194.812 73.6595 194.644 73.8445 194.517 74.0574L187.653 85.6135C186.848 86.9691 186.603 88.5854 186.97 90.1187C187.338 91.6521 188.289 92.9818 189.621 93.8253C191.166 94.8036 192.968 95.2982 194.796 95.2457C196.623 95.1933 198.394 94.5962 199.88 93.5309L210.503 85.9178C210.855 85.6551 211.108 85.2813 211.222 84.8568C211.335 84.4324 211.302 83.9821 211.128 83.5789Z" fill="#E2B5A3"/>
<g opacity="0.25">
<path d="M198.961 80.5476C198.987 80.5829 199.026 80.6066 199.07 80.6137C199.113 80.6207 199.157 80.6107 199.193 80.5856L205.876 75.957C205.895 75.9453 205.913 75.9297 205.926 75.911C205.94 75.8924 205.949 75.8712 205.954 75.8487C205.959 75.8262 205.959 75.8029 205.955 75.7803C205.951 75.7577 205.942 75.7363 205.929 75.7173C205.916 75.6983 205.899 75.6822 205.879 75.67C205.86 75.6577 205.838 75.6496 205.815 75.6462C205.793 75.6427 205.769 75.644 205.747 75.6499C205.725 75.6558 205.704 75.6662 205.686 75.6805L199.004 80.309C198.967 80.3344 198.942 80.3734 198.934 80.4172C198.926 80.4611 198.936 80.5064 198.961 80.5431L198.961 80.5476Z" fill="#0C0C0C"/>
</g>
<g opacity="0.25">
<path d="M200.921 83.5513C200.947 83.5865 200.986 83.6102 201.029 83.6173C201.073 83.6244 201.117 83.6143 201.153 83.5892L208.611 78.4235C208.648 78.398 208.673 78.3591 208.681 78.3152C208.689 78.2713 208.679 78.2261 208.653 78.1894C208.627 78.1539 208.588 78.1298 208.545 78.1219C208.501 78.1141 208.457 78.123 208.419 78.1469L200.962 83.3134C200.925 83.3388 200.9 83.3778 200.892 83.4216C200.884 83.4655 200.894 83.5108 200.919 83.5475L200.921 83.5513Z" fill="#0C0C0C"/>
</g>
<g opacity="0.25">
<path d="M203.026 86.8164C203.052 86.8517 203.091 86.8754 203.134 86.8825C203.178 86.8896 203.222 86.8795 203.258 86.8544L209.207 82.7339C209.242 82.7077 209.265 82.669 209.272 82.626C209.279 82.5829 209.269 82.5389 209.244 82.5031C209.219 82.4672 209.182 82.4425 209.139 82.4339C209.096 82.4254 209.052 82.4338 209.015 82.4573L203.066 86.5778C203.048 86.5904 203.032 86.6064 203.02 86.625C203.008 86.6436 203 86.6644 202.996 86.6861C202.992 86.7079 202.993 86.7302 202.998 86.7517C203.002 86.7733 203.011 86.7938 203.024 86.8119L203.026 86.8164Z" fill="#0C0C0C"/>
</g>
<path d="M184.627 81.4487L167.542 120.902L143.969 88.6396L123.542 107.056L158.426 152.235L158.654 152.556C160.05 154.468 161.91 155.994 164.059 156.989C166.208 157.983 168.575 158.415 170.936 158.242C173.298 158.069 175.577 157.298 177.558 156.001C179.539 154.704 181.157 152.924 182.26 150.828L206.828 93.7962L184.627 81.4487Z" fill="#4FE0D2"/>
<path d="M165.566 125.03C165.522 125.03 165.479 125.019 165.441 124.998C165.403 124.976 165.37 124.945 165.348 124.908C165.325 124.871 165.312 124.828 165.31 124.784C165.309 124.74 165.318 124.697 165.338 124.658L167.315 120.786C167.347 120.729 167.401 120.687 167.464 120.669C167.527 120.651 167.594 120.657 167.652 120.687C167.711 120.717 167.755 120.768 167.777 120.829C167.799 120.891 167.796 120.959 167.77 121.019L165.794 124.891C165.772 124.933 165.74 124.968 165.699 124.993C165.659 125.017 165.613 125.03 165.566 125.03Z" fill="#0C0C0C"/>
<path d="M81.8585 43.3135C81.8585 43.3135 79.6255 55.2126 76.4068 59.2416C67.1404 70.8406 63.2043 84.6655 70.1041 92.9585C77.0039 101.251 126.612 107.286 132.396 90.8001C137.265 76.9203 130.657 74.5753 130.411 62.6159C130.299 57.2043 129.576 45.7988 129.576 45.7988" fill="#0C0C0C"/>
<path d="M122.104 84.5118C122.018 84.5008 121.06 100.385 102.608 98.9999C89.8332 98.043 85.2787 84.4895 84.9858 84.4895C86.363 84.1966 88.6825 83.7709 89.2941 83.4446C91.3048 82.3638 93.7947 81.2393 94.443 77.3327C94.8167 75.0811 94.1828 63.561 94.3778 61.2847L113.986 65.6617C113.713 70.4726 111.795 81.6259 118.516 83.6002C119.635 83.9265 120.84 84.2269 122.104 84.5118Z" fill="#E2B5A3"/>
<path opacity="0.52" d="M114.261 79.0417C113.954 78.0518 113.756 77.0312 113.672 75.9982C113.456 73.6411 113.499 71.2674 113.8 68.9197C109.814 68.3817 106.06 66.7367 102.962 64.1716C102.598 65.5162 100.596 71.3921 101.15 72.6699C102.198 75.0858 107.123 79.0417 114.261 79.0417Z" fill="#0C0C0C"/>
<path d="M110.781 75.2039C103.016 75.029 93.451 70.7712 92.6156 60.3024L91.8622 50.8557C91.0275 40.3872 95.8479 31.4618 105.704 30.6753C115.561 29.8889 123.605 37.7877 124.44 48.2561L124.774 52.4381C125.095 56.4554 124.635 75.5162 110.781 75.2039Z" fill="#E2B5A3"/>
<path opacity="0.52" d="M115.37 61.309H115.39C115.789 61.2739 116.187 61.217 116.58 61.1386C117.168 61.0172 117.946 60.7953 117.902 60.2717C117.855 59.6753 115.708 53.3696 115.463 52.6525C115.44 52.5915 115.394 52.5418 115.336 52.5139C115.277 52.486 115.21 52.4821 115.148 52.5031C115.086 52.5242 115.035 52.5684 115.006 52.6264C114.977 52.6844 114.971 52.7517 114.99 52.8138C115.907 55.4994 117.373 59.9083 117.405 60.3116C117.321 60.4869 116.341 60.7319 115.35 60.8112C115.286 60.8163 115.226 60.8461 115.183 60.8944C115.14 60.9427 115.117 61.0058 115.12 61.0704C115.123 61.1349 115.15 61.1959 115.197 61.2406C115.244 61.2852 115.306 61.31 115.37 61.3097V61.309Z" fill="#0C0C0C"/>
<path opacity="0.52" d="M113.759 64.0026C112.161 64.0327 110.593 64.4379 109.181 65.1855C109.122 65.2153 109.077 65.2673 109.056 65.3301C109.035 65.393 109.04 65.4614 109.07 65.5205C109.1 65.5796 109.152 65.6244 109.215 65.6451C109.278 65.6658 109.346 65.6607 109.405 65.6309C112.453 64.0936 115.311 64.1069 117.67 65.6688C117.717 65.7018 117.766 65.7323 117.817 65.7603C117.876 65.7879 117.944 65.7912 118.006 65.7695C118.067 65.7478 118.118 65.7027 118.147 65.6441C118.176 65.5854 118.18 65.5178 118.16 65.4558C118.139 65.3937 118.095 65.3422 118.037 65.3122C118.019 65.302 117.988 65.2811 117.945 65.2527C116.705 64.4287 115.248 63.9934 113.759 64.0026Z" fill="#0C0C0C"/>
<path d="M83.7866 53.2496L92.6167 52.5955C99.4607 50.6489 102.668 39.5101 102.668 39.5101C102.668 39.5101 109.797 48.1328 129.576 45.7988C129.576 45.7988 128.609 18.4602 99.2464 23.2132C89.7785 24.7455 82.1795 33.3007 81.6662 45.7742C81.3081 54.5156 83.7866 53.2496 83.7866 53.2496Z" fill="#0C0C0C"/>
<path d="M93.4823 63.443C90.4852 63.682 87.803 60.6712 87.564 57.6763C87.325 54.6814 89.6214 52.835 92.6166 52.5959L94.3207 54.48L96.0579 63.2381L93.4823 63.443Z" fill="#E2B5A3"/>
<path d="M117.76 47.9364C118.676 47.4758 119.699 47.2701 120.722 47.3407C121.226 47.3725 121.722 47.4798 122.194 47.659C122.661 47.8343 123.105 48.0678 123.514 48.3541C123.571 48.3915 123.611 48.4495 123.626 48.5159C123.64 48.5823 123.628 48.6518 123.592 48.7095C123.556 48.7672 123.499 48.8086 123.433 48.8248C123.367 48.841 123.297 48.8309 123.239 48.7964L123.221 48.7862C122.841 48.5451 122.431 48.3529 122.002 48.2141C121.579 48.0744 121.136 47.9997 120.691 47.9925C119.807 47.9713 118.933 48.1844 118.159 48.6102L118.133 48.6246C118.043 48.6736 117.938 48.6855 117.839 48.6576C117.741 48.6297 117.657 48.5642 117.606 48.4753C117.555 48.3864 117.541 48.2811 117.567 48.182C117.593 48.0828 117.656 47.9978 117.744 47.9451L117.76 47.9364Z" fill="#0C0C0C"/>
<path d="M109.842 48.9217C109.011 48.6208 108.115 48.545 107.245 48.702C106.806 48.7778 106.38 48.9198 105.984 49.1231C105.581 49.3263 105.206 49.5795 104.867 49.8766L104.852 49.8887C104.826 49.9111 104.796 49.9282 104.763 49.939C104.731 49.9498 104.697 49.9542 104.663 49.9517C104.628 49.9493 104.595 49.9401 104.564 49.9248C104.534 49.9094 104.506 49.8882 104.484 49.8623C104.462 49.8365 104.445 49.8064 104.434 49.7739C104.423 49.7414 104.419 49.7071 104.421 49.673C104.424 49.6388 104.433 49.6055 104.448 49.5749C104.463 49.5442 104.485 49.5169 104.51 49.4945C104.871 49.1486 105.273 48.8495 105.708 48.6041C106.146 48.3544 106.619 48.172 107.112 48.0631C108.112 47.8351 109.154 47.8805 110.13 48.1947C110.229 48.2273 110.31 48.2977 110.357 48.3904C110.404 48.4832 110.412 48.5907 110.379 48.6893C110.347 48.7879 110.276 48.8695 110.184 48.9162C110.091 48.9629 109.983 48.9709 109.885 48.9383L109.869 48.9327L109.842 48.9217Z" fill="#0C0C0C"/>
<path d="M92.6473 52.4883L92.5874 52.239C103.983 49.4835 102.461 38.4293 102.444 38.3155L102.698 38.2776C102.715 38.3941 104.274 49.6766 92.6473 52.4883Z" fill="#0C0C0C"/>
<path opacity="0.1" d="M107.504 61.2247C108.785 61.2247 109.824 60.4627 109.824 59.5227C109.824 58.5828 108.785 57.8208 107.504 57.8208C106.223 57.8208 105.184 58.5828 105.184 59.5227C105.184 60.4627 106.223 61.2247 107.504 61.2247Z" fill="#0C0C0C"/>
<path opacity="0.1" d="M121.295 59.1161C121.298 60.0551 122.336 60.8165 123.617 60.8184C123.839 60.8183 124.059 60.7953 124.276 60.7497C124.466 59.6533 124.597 58.5925 124.682 57.6061C124.342 57.4769 123.98 57.4125 123.616 57.4164C122.334 57.4126 121.295 58.1741 121.295 59.1161Z" fill="#0C0C0C"/>
<path d="M145.029 119.481C144.448 126.31 141.621 168.91 141.062 177.321H64.0479C63.6131 169.734 61.6578 136.565 60.0098 121.731C58.4349 107.576 55.3434 100.489 57.6098 96.3043C61.3107 89.4647 66.6254 83.2963 76.8156 82.4434C81.0502 82.089 88.8636 83.6001 88.8636 83.6001C88.8636 83.6001 89.3996 94.4479 102.186 95.0519C119.592 95.8729 118.435 83.6297 118.516 83.6001C122.104 82.2882 134.114 80.1857 139.615 83.8171C150.106 90.7459 146.263 105.011 145.029 119.481Z" fill="#4FE0D2"/>
<path d="M120.077 52.9149C120.749 52.9149 121.295 52.3697 121.295 51.6971C121.295 51.0245 120.749 50.4792 120.077 50.4792C119.404 50.4792 118.859 51.0245 118.859 51.6971C118.859 52.3697 119.404 52.9149 120.077 52.9149Z" fill="#0C0C0C"/>
<path d="M108.137 53.3133C108.81 53.3133 109.355 52.7681 109.355 52.0955C109.355 51.4229 108.81 50.8777 108.137 50.8777C107.465 50.8777 106.919 51.4229 106.919 52.0955C106.919 52.7681 107.465 53.3133 108.137 53.3133Z" fill="#0C0C0C"/>
<path d="M144.442 123.913L143.826 134.756L144.338 134.785L144.953 123.942L144.442 123.913Z" fill="#0C0C0C"/>
<path d="M0.745369 88.3672C0.945261 88.0481 1.23932 87.7989 1.58693 87.6541C1.93454 87.5092 2.31855 87.4759 2.6859 87.5587C2.68593 87.5253 2.69626 87.4927 2.71549 87.4654C2.73476 87.4447 2.75916 87.4295 2.78622 87.4213C2.81327 87.4131 2.84202 87.4122 2.86952 87.4187L1.69799 86.4031C1.34603 86.1117 1.11147 85.7027 1.03769 85.2518C0.963902 84.8008 1.05588 84.3384 1.29661 83.95C1.54703 83.574 1.92825 83.3046 2.36623 83.1939C2.80421 83.0833 3.26767 83.1394 3.6666 83.3513C3.6666 83.3331 3.67836 83.3172 3.68292 83.2994L3.20148 82.882C2.87125 82.6058 2.6466 82.224 2.56558 81.8011C2.48455 81.3783 2.55212 80.9405 2.75685 80.5617C2.89009 80.3269 3.07376 80.1246 3.29463 79.9694C3.5155 79.8142 3.76805 79.7099 4.03409 79.664C4.30013 79.6182 4.57303 79.632 4.8331 79.7043C5.09318 79.7767 5.33396 79.9059 5.53809 80.0826L6.6493 81.0458C6.65347 81.039 6.6493 81.0303 6.65612 81.0242C6.66295 81.0181 6.67433 81.017 6.68192 81.0102C6.43713 80.6776 6.31266 80.2716 6.32893 79.859C6.3452 79.4463 6.50124 79.0514 6.77146 78.7391C7.4164 77.8874 8.69606 78.1921 9.4146 78.815L15.9703 84.2998L14.9134 82.0766C14.6987 81.6477 14.6549 81.1534 14.7908 80.6934C14.9266 80.2335 15.232 79.8423 15.6452 79.5988C15.8628 79.4806 16.1022 79.408 16.3489 79.3854C16.5955 79.3628 16.8441 79.3907 17.0796 79.4674C17.3151 79.5441 17.5325 79.668 17.7185 79.8315C17.9045 79.995 18.0553 80.1946 18.1616 80.4183L23.9324 92.5587C24.6095 93.9827 24.7046 95.6147 24.1976 97.1077C23.6906 98.6008 22.6214 99.8374 21.2171 100.555C19.5886 101.386 17.7487 101.713 15.9334 101.492C14.1181 101.272 12.41 100.514 11.0281 99.3163L1.1532 90.7555C0.826034 90.4616 0.607733 90.0658 0.533705 89.6323C0.459677 89.1988 0.534264 88.753 0.745369 88.3672Z" fill="#E2B5A3"/>
<g opacity="0.25">
<path d="M13.1392 86.4676C13.1101 86.5005 13.0693 86.5208 13.0255 86.524C12.9817 86.5273 12.9383 86.5133 12.9047 86.4851L6.67678 81.2609C6.64456 81.2317 6.62492 81.1911 6.62197 81.1477C6.61902 81.1042 6.63298 81.0614 6.66094 81.028C6.68889 80.9947 6.72867 80.9734 6.77193 80.9687C6.8152 80.9641 6.85859 80.9763 6.89302 81.0029L13.1209 86.2275C13.1551 86.2562 13.1765 86.2973 13.1804 86.3417C13.1843 86.3862 13.1704 86.4304 13.1418 86.4646L13.1392 86.4676Z" fill="#0C0C0C"/>
</g>
<g opacity="0.25">
<path d="M10.9107 89.2778C10.8817 89.3108 10.8409 89.3312 10.7971 89.3345C10.7533 89.3379 10.7099 89.3239 10.6762 89.2956L3.72446 83.4652C3.69034 83.4365 3.66902 83.3953 3.66518 83.3509C3.66134 83.3064 3.67529 83.2623 3.70398 83.2281C3.73346 83.1953 3.77433 83.1749 3.81829 83.1711C3.86226 83.1673 3.90603 83.1803 3.94071 83.2076L10.8913 89.038C10.9083 89.0522 10.9222 89.0696 10.9324 89.0891C10.9426 89.1087 10.9489 89.1301 10.9508 89.1521C10.9527 89.1741 10.9502 89.1963 10.9435 89.2173C10.9368 89.2384 10.9261 89.2579 10.9118 89.2748L10.9107 89.2778Z" fill="#0C0C0C"/>
</g>
<g opacity="0.25">
<path d="M8.51456 92.3356C8.48552 92.3685 8.44475 92.3888 8.40095 92.3921C8.35716 92.3955 8.31379 92.3816 8.2801 92.3534L2.73582 87.7025C2.70167 87.6738 2.6803 87.6327 2.67642 87.5883C2.67254 87.5439 2.68647 87.4997 2.71515 87.4656C2.74382 87.4314 2.7849 87.41 2.82933 87.4062C2.87376 87.4023 2.91791 87.4162 2.95207 87.4449L8.49673 92.0954C8.53076 92.1242 8.55202 92.1653 8.55586 92.2097C8.55969 92.2542 8.5458 92.2983 8.51721 92.3325L8.51456 92.3356Z" fill="#0C0C0C"/>
</g>
<path d="M26.6411 87.8577L39.6289 121.165L58.5918 94.5368L79.0185 112.953L49.7682 157.619L49.5406 157.941C48.1442 159.853 46.284 161.379 44.1352 162.373C41.9864 163.368 39.6197 163.799 37.2581 163.627C34.8966 163.454 32.6179 162.682 30.6368 161.385C28.6557 160.089 27.0374 158.309 25.9344 156.213L4.95117 99.693L26.6411 87.8577Z" fill="#4FE0D2"/>
<path d="M41.605 125.293C41.6488 125.293 41.6919 125.282 41.73 125.261C41.7682 125.239 41.8003 125.208 41.8231 125.171C41.8459 125.134 41.8588 125.091 41.8605 125.047C41.8621 125.003 41.8526 124.96 41.8326 124.921L39.8564 121.048C39.8228 120.993 39.7694 120.953 39.7071 120.935C39.6447 120.917 39.578 120.924 39.5204 120.954C39.4627 120.983 39.4184 121.033 39.3963 121.094C39.3741 121.155 39.3759 121.222 39.4012 121.282L41.3774 125.154C41.3987 125.196 41.4313 125.231 41.4715 125.256C41.5117 125.28 41.5579 125.293 41.605 125.293Z" fill="#0C0C0C"/>
<path d="M61.5822 139.877C61.5072 139.877 61.4349 139.849 61.3798 139.798C61.3247 139.747 61.2908 139.678 61.2847 139.603L60.4736 129.581C60.4672 129.502 60.4925 129.423 60.5438 129.363C60.5951 129.303 60.6682 129.265 60.7472 129.259C60.8261 129.252 60.9043 129.278 60.9647 129.329C61.025 129.38 61.0625 129.453 61.0689 129.532L61.88 139.555C61.8832 139.594 61.8786 139.633 61.8666 139.67C61.8545 139.708 61.8353 139.742 61.8099 139.772C61.7845 139.802 61.7534 139.827 61.7185 139.844C61.6836 139.862 61.6456 139.873 61.6065 139.876L61.5822 139.877Z" fill="#292929"/>
<path d="M273.718 97.4869H272.959V25.3613H195.703V24.6025H273.718V97.4869Z" fill="#4FE0D2"/>
<path d="M269.608 3.2407L246.991 42.4154C246.613 43.0703 246.414 43.8131 246.414 44.5692C246.414 45.3254 246.613 46.0682 246.991 46.7231C247.369 47.3779 247.913 47.9217 248.568 48.2998C249.223 48.6779 249.965 48.877 250.722 48.8771H295.956C296.712 48.877 297.455 48.6779 298.11 48.2998C298.764 47.9217 299.308 47.3779 299.686 46.7231C300.064 46.0682 300.263 45.3254 300.263 44.5692C300.263 43.8131 300.064 43.0703 299.686 42.4154L277.069 3.2407C276.691 2.58594 276.147 2.04222 275.492 1.66419C274.837 1.28617 274.095 1.08716 273.339 1.08716C272.582 1.08716 271.84 1.28617 271.185 1.66419C270.53 2.04222 269.986 2.58594 269.608 3.2407Z" fill="#F4F4F4"/>
<path d="M295.956 49.2561H250.722C249.899 49.2562 249.091 49.0397 248.378 48.6283C247.665 48.217 247.074 47.6253 246.662 46.9127C246.251 46.2001 246.034 45.3918 246.034 44.569C246.034 43.7462 246.251 42.9378 246.662 42.2253L269.279 3.05099C269.691 2.33829 270.282 1.74643 270.995 1.33493C271.708 0.923429 272.516 0.706787 273.339 0.706787C274.162 0.706787 274.97 0.923429 275.683 1.33493C276.395 1.74643 276.987 2.33829 277.398 3.05099L300.015 42.2257C300.426 42.9382 300.643 43.7465 300.643 44.5693C300.642 45.3921 300.426 46.2004 300.015 46.9129C299.603 47.6254 299.011 48.2171 298.299 48.6285C297.586 49.0399 296.778 49.2565 295.955 49.2565L295.956 49.2561ZM273.338 1.4663C272.648 1.46209 271.969 1.64181 271.371 1.987C270.773 2.33219 270.278 2.83039 269.936 3.43038L247.32 42.6051C246.975 43.2022 246.793 43.8797 246.793 44.5693C246.793 45.2589 246.975 45.9363 247.32 46.5335C247.664 47.1308 248.16 47.6267 248.757 47.9715C249.355 48.3163 250.032 48.4977 250.722 48.4977H295.956C296.645 48.4976 297.323 48.3161 297.92 47.9713C298.517 47.6264 299.013 47.1305 299.357 46.5334C299.702 45.9362 299.884 45.2588 299.884 44.5692C299.884 43.8797 299.702 43.2023 299.358 42.6051L276.74 3.43038C276.399 2.83047 275.904 2.33233 275.306 1.98715C274.708 1.64197 274.029 1.4622 273.338 1.4663Z" fill="#292929"/>
<path d="M270.339 37.3183C270.363 36.7293 270.559 36.1603 270.904 35.6821C271.249 35.2038 271.726 34.8374 272.277 34.6284C272.829 34.4194 273.429 34.377 274.004 34.5066C274.579 34.6361 275.104 34.9319 275.512 35.357C275.92 35.7822 276.194 36.318 276.301 36.8978C276.407 37.4776 276.34 38.0759 276.109 38.6182C275.878 39.1605 275.493 39.6229 275.001 39.948C274.509 40.273 273.933 40.4463 273.344 40.4464C272.939 40.4461 272.538 40.364 272.165 40.2051C271.793 40.0463 271.456 39.8138 271.176 39.5217C270.895 39.2297 270.677 38.884 270.533 38.5053C270.389 38.1267 270.323 37.723 270.339 37.3183ZM271.016 21.8526L270.849 17.3542H275.838L275.671 21.8526L274.977 32.2076H271.71L271.016 21.8526Z" fill="#4FE0D2"/>
<path d="M305.502 145.718H241.176C239.255 145.718 238.823 143.48 239.439 142.3L243.486 136.9C243.636 136.612 243.862 136.371 244.139 136.203C244.416 136.035 244.735 135.946 245.059 135.946H301.619C301.943 135.946 302.261 136.035 302.538 136.203C302.816 136.371 303.042 136.612 303.192 136.9L307.239 142.3C307.855 143.481 307.423 145.718 305.502 145.718Z" fill="#292929"/>
<path d="M244.433 96.7834V132.19C244.433 133.561 245.544 134.672 246.915 134.672H299.762C301.133 134.672 302.244 133.561 302.244 132.19V96.7834C302.244 95.4129 301.133 94.3019 299.762 94.3019H246.915C245.544 94.3019 244.433 95.4129 244.433 96.7834Z" fill="#292929"/>
<path d="M300.682 97.3725V131.601C300.682 132.025 300.514 132.432 300.214 132.731C299.914 133.031 299.508 133.2 299.084 133.2H247.504C247.291 133.2 247.081 133.158 246.885 133.076C246.688 132.995 246.51 132.876 246.36 132.726C246.21 132.576 246.091 132.397 246.009 132.201C245.928 132.005 245.886 131.795 245.886 131.582V97.3915C245.886 97.1791 245.928 96.9688 246.009 96.7726C246.091 96.5763 246.21 96.3981 246.36 96.2479C246.51 96.0977 246.688 95.9786 246.885 95.8973C247.081 95.816 247.291 95.7742 247.504 95.7742H299.084C299.508 95.7742 299.914 95.9426 300.214 96.2423C300.514 96.5421 300.682 96.9486 300.682 97.3725Z" fill="#F4F4F4"/>
<path d="M305.502 144.444H241.175C240.87 144.444 240.571 144.366 240.305 144.216C240.039 144.066 239.816 143.851 239.658 143.59C239.5 143.329 239.412 143.032 239.402 142.727C239.393 142.422 239.461 142.12 239.603 141.85L243.486 135.625C243.636 135.338 243.862 135.097 244.139 134.929C244.416 134.761 244.734 134.672 245.059 134.672H301.618C301.943 134.672 302.261 134.761 302.538 134.929C302.816 135.097 303.042 135.338 303.192 135.625L307.075 141.85C307.216 142.12 307.285 142.422 307.275 142.727C307.265 143.032 307.177 143.329 307.019 143.59C306.861 143.851 306.638 144.066 306.372 144.216C306.107 144.366 305.807 144.444 305.502 144.444Z" fill="#292929"/>
<path opacity="0.1" d="M305.502 144.444H241.175C240.87 144.444 240.571 144.366 240.305 144.216C240.039 144.066 239.816 143.851 239.658 143.59C239.5 143.329 239.412 143.032 239.402 142.727C239.393 142.422 239.461 142.12 239.603 141.85L243.486 135.625C243.636 135.338 243.862 135.097 244.139 134.929C244.416 134.761 244.734 134.672 245.059 134.672H301.618C301.943 134.672 302.261 134.761 302.538 134.929C302.816 135.097 303.042 135.338 303.192 135.625L307.075 141.85C307.216 142.12 307.285 142.422 307.275 142.727C307.265 143.032 307.177 143.329 307.019 143.59C306.861 143.851 306.638 144.066 306.372 144.216C306.107 144.366 305.807 144.444 305.502 144.444Z" fill="#F4F4F4"/>
<path d="M271.539 102.941L260.629 121.838C260.446 122.154 260.351 122.513 260.351 122.877C260.351 123.242 260.447 123.6 260.629 123.916C260.811 124.232 261.074 124.494 261.39 124.677C261.706 124.859 262.064 124.955 262.429 124.955H284.249C284.614 124.955 284.972 124.859 285.288 124.677C285.604 124.494 285.866 124.232 286.049 123.916C286.231 123.6 286.327 123.242 286.327 122.877C286.327 122.513 286.231 122.154 286.049 121.838L275.138 102.941C274.956 102.625 274.694 102.363 274.378 102.18C274.062 101.998 273.704 101.902 273.339 101.902C272.974 101.902 272.616 101.998 272.3 102.18C271.984 102.363 271.722 102.625 271.539 102.941Z" fill="#4FE0D2"/>
<path d="M271.892 119.38C271.903 119.095 271.998 118.821 272.164 118.59C272.33 118.359 272.561 118.182 272.827 118.081C273.093 117.981 273.383 117.96 273.66 118.023C273.938 118.085 274.191 118.228 274.388 118.433C274.585 118.638 274.717 118.897 274.768 119.176C274.82 119.456 274.787 119.745 274.676 120.007C274.565 120.268 274.379 120.491 274.141 120.648C273.904 120.805 273.626 120.889 273.341 120.889C273.146 120.889 272.953 120.849 272.773 120.772C272.593 120.696 272.431 120.584 272.295 120.443C272.16 120.302 272.055 120.135 271.985 119.952C271.916 119.77 271.884 119.575 271.892 119.38ZM272.219 111.919L272.137 109.747H274.544L274.464 111.919L274.13 116.915H272.554L272.219 111.919Z" fill="#F4F4F4"/>
<path d="M210.064 0.379395H154.294V46.2992H210.064V0.379395Z" fill="#F4F4F4"/>
<path d="M210.064 46.6786H154.295C154.195 46.6786 154.098 46.6386 154.027 46.5674C153.956 46.4963 153.916 46.3998 153.916 46.2992V0.379386C153.916 0.278767 153.956 0.182268 154.027 0.11112C154.098 0.039971 154.195 0 154.295 0L210.064 0C210.165 0 210.262 0.039971 210.333 0.11112C210.404 0.182268 210.444 0.278767 210.444 0.379386V46.2992C210.444 46.3998 210.404 46.4963 210.333 46.5674C210.262 46.6386 210.165 46.6786 210.064 46.6786ZM154.675 45.9198H209.685V0.758773H154.675V45.9198Z" fill="#292929"/>
<path d="M208.027 2.35376H166.801V14.7514H208.027V2.35376Z" fill="#4FE0D2"/>
<g opacity="0.69">
<path d="M208.027 2.35376H166.801V14.7514H208.027V2.35376Z" fill="#F4F4F4"/>
</g>
<path d="M208.027 14.9578H166.801C166.774 14.9578 166.747 14.9525 166.722 14.9422C166.697 14.9318 166.675 14.9166 166.655 14.8975C166.636 14.8783 166.621 14.8555 166.61 14.8305C166.6 14.8054 166.595 14.7785 166.595 14.7514V2.35227C166.595 2.32511 166.6 2.2982 166.61 2.27309C166.621 2.24798 166.636 2.22517 166.655 2.20596C166.674 2.18675 166.697 2.17152 166.722 2.16115C166.747 2.15077 166.774 2.14546 166.801 2.14551H208.027C208.082 2.14551 208.135 2.16729 208.174 2.20607C208.212 2.24484 208.234 2.29744 208.234 2.35227V14.7514C208.234 14.7785 208.229 14.8054 208.218 14.8305C208.208 14.8555 208.193 14.8783 208.173 14.8975C208.154 14.9166 208.131 14.9318 208.106 14.9422C208.081 14.9525 208.054 14.9578 208.027 14.9578ZM167.01 14.5446H207.821V2.56056H167.01V14.5446Z" fill="#292929"/>
<path d="M173.064 11.0958C174.469 11.0958 175.607 9.95712 175.607 8.55244C175.607 7.14776 174.469 6.00903 173.064 6.00903C171.659 6.00903 170.521 7.14776 170.521 8.55244C170.521 9.95712 171.659 11.0958 173.064 11.0958Z" fill="#F4F4F4"/>
<path d="M173.064 11.3023C172.52 11.3023 171.988 11.1411 171.536 10.8389C171.084 10.5367 170.731 10.1071 170.523 9.60462C170.315 9.10209 170.261 8.54912 170.367 8.01564C170.473 7.48216 170.735 6.99213 171.119 6.60751C171.504 6.22289 171.994 5.96096 172.528 5.85485C173.061 5.74873 173.614 5.80319 174.117 6.01135C174.619 6.2195 175.049 6.572 175.351 7.02426C175.653 7.47653 175.814 8.00824 175.814 8.55218C175.813 9.28132 175.523 9.98037 175.008 10.496C174.492 11.0115 173.793 11.3015 173.064 11.3023ZM173.064 6.21591C172.602 6.21591 172.15 6.35297 171.766 6.60974C171.382 6.86651 171.082 7.23146 170.905 7.65845C170.728 8.08544 170.682 8.55528 170.772 9.00855C170.863 9.46182 171.085 9.87817 171.412 10.2049C171.739 10.5317 172.155 10.7542 172.608 10.8443C173.062 10.9345 173.532 10.8881 173.959 10.7112C174.385 10.5343 174.75 10.2348 175.007 9.85045C175.264 9.46614 175.401 9.01434 175.401 8.55218C175.4 7.93271 175.154 7.33882 174.716 6.90083C174.277 6.46284 173.684 6.21652 173.064 6.21591Z" fill="#292929"/>
<path d="M196.488 8.50411H178.888C178.834 8.50411 178.781 8.48232 178.742 8.44355C178.703 8.40477 178.682 8.35218 178.682 8.29734C178.682 8.2425 178.703 8.18991 178.742 8.15114C178.781 8.11236 178.834 8.09058 178.888 8.09058H196.488C196.515 8.09058 196.542 8.09592 196.567 8.10631C196.592 8.11671 196.615 8.13194 196.634 8.15114C196.653 8.17034 196.669 8.19313 196.679 8.21822C196.689 8.2433 196.695 8.27019 196.695 8.29734C196.695 8.32449 196.689 8.35138 196.679 8.37647C196.669 8.40155 196.653 8.42435 196.634 8.44355C196.615 8.46275 196.592 8.47798 196.567 8.48837C196.542 8.49876 196.515 8.50411 196.488 8.50411Z" fill="#292929"/>
<path d="M201.136 8.50411H200.48C200.425 8.50411 200.372 8.48232 200.334 8.44355C200.295 8.40477 200.273 8.35218 200.273 8.29734C200.273 8.2425 200.295 8.18991 200.334 8.15114C200.372 8.11236 200.425 8.09058 200.48 8.09058H201.136C201.191 8.09058 201.243 8.11236 201.282 8.15114C201.321 8.18991 201.343 8.2425 201.343 8.29734C201.343 8.35218 201.321 8.40477 201.282 8.44355C201.243 8.48232 201.191 8.50411 201.136 8.50411Z" fill="#292929"/>
<path d="M198.832 8.50411H198.176C198.122 8.50411 198.069 8.48232 198.03 8.44355C197.992 8.40477 197.97 8.35218 197.97 8.29734C197.97 8.2425 197.992 8.18991 198.03 8.15114C198.069 8.11236 198.122 8.09058 198.176 8.09058H198.832C198.86 8.09058 198.886 8.09592 198.912 8.10631C198.937 8.11671 198.959 8.13194 198.979 8.15114C198.998 8.17034 199.013 8.19313 199.023 8.21822C199.034 8.2433 199.039 8.27019 199.039 8.29734C199.039 8.32449 199.034 8.35138 199.023 8.37647C199.013 8.40155 198.998 8.42435 198.979 8.44355C198.959 8.46275 198.937 8.47798 198.912 8.48837C198.886 8.49876 198.86 8.50411 198.832 8.50411Z" fill="#292929"/>
<path d="M203.597 8.50411H202.941C202.886 8.50411 202.833 8.48232 202.794 8.44355C202.756 8.40477 202.734 8.35218 202.734 8.29734C202.734 8.2425 202.756 8.18991 202.794 8.15114C202.833 8.11236 202.886 8.09058 202.941 8.09058H203.597C203.624 8.09058 203.651 8.09592 203.676 8.10631C203.701 8.11671 203.724 8.13194 203.743 8.15114C203.762 8.17034 203.778 8.19313 203.788 8.21822C203.798 8.2433 203.804 8.27019 203.804 8.29734C203.804 8.32449 203.798 8.35138 203.788 8.37647C203.778 8.40155 203.762 8.42435 203.743 8.44355C203.724 8.46275 203.701 8.47798 203.676 8.48837C203.651 8.49876 203.624 8.50411 203.597 8.50411Z" fill="#292929"/>
<path d="M208.027 16.9214H166.801V29.319H208.027V16.9214Z" fill="#4FE0D2"/>
<g opacity="0.69">
<path d="M208.027 16.9214H166.801V29.319H208.027V16.9214Z" fill="#F4F4F4"/>
</g>
<path d="M208.027 29.5254H166.801C166.774 29.5254 166.747 29.5201 166.722 29.5098C166.697 29.4994 166.675 29.4842 166.655 29.4651C166.636 29.4459 166.621 29.4231 166.61 29.398C166.6 29.373 166.595 29.3461 166.595 29.319V16.9206C166.595 16.8935 166.6 16.8666 166.61 16.8414C166.621 16.8163 166.636 16.7935 166.655 16.7743C166.674 16.7551 166.697 16.7399 166.722 16.7295C166.747 16.7191 166.774 16.7138 166.801 16.7139H208.027C208.054 16.7139 208.081 16.7192 208.106 16.7296C208.132 16.74 208.154 16.7552 208.174 16.7744C208.193 16.7936 208.208 16.8164 208.218 16.8415C208.229 16.8666 208.234 16.8935 208.234 16.9206V29.319C208.234 29.3461 208.229 29.373 208.218 29.398C208.208 29.4231 208.193 29.4459 208.173 29.4651C208.154 29.4842 208.131 29.4994 208.106 29.5098C208.081 29.5201 208.054 29.5254 208.027 29.5254ZM167.01 29.1122H207.821V17.1282H167.01V29.1122Z" fill="#292929"/>
<path d="M173.064 25.6635C174.469 25.6635 175.607 24.5248 175.607 23.1201C175.607 21.7154 174.469 20.5767 173.064 20.5767C171.659 20.5767 170.521 21.7154 170.521 23.1201C170.521 24.5248 171.659 25.6635 173.064 25.6635Z" fill="#F4F4F4"/>
<path d="M173.064 25.87C172.52 25.87 171.988 25.7087 171.536 25.4065C171.084 25.1043 170.731 24.6747 170.523 24.1722C170.315 23.6696 170.261 23.1166 170.367 22.5831C170.473 22.0496 170.735 21.5596 171.12 21.175C171.504 20.7904 171.994 20.5285 172.528 20.4224C173.061 20.3164 173.614 20.3709 174.117 20.5791C174.619 20.7873 175.049 21.1399 175.351 21.5922C175.653 22.0445 175.814 22.5762 175.814 23.1202C175.813 23.8493 175.523 24.5482 175.008 25.0637C174.492 25.5792 173.793 25.8692 173.064 25.87ZM173.064 20.7835C172.602 20.7835 172.15 20.9206 171.766 21.1773C171.382 21.4341 171.082 21.799 170.905 22.226C170.729 22.653 170.682 23.1228 170.772 23.576C170.863 24.0293 171.085 24.4457 171.412 24.7724C171.739 25.0992 172.155 25.3218 172.608 25.4119C173.061 25.5021 173.531 25.4558 173.958 25.279C174.385 25.1021 174.75 24.8026 175.007 24.4183C175.264 24.0341 175.401 23.5823 175.401 23.1202C175.4 22.5007 175.154 21.9067 174.716 21.4686C174.278 21.0305 173.684 20.7841 173.064 20.7835Z" fill="#292929"/>
<path d="M196.488 23.0717H178.888C178.834 23.0717 178.781 23.05 178.742 23.0112C178.703 22.9724 178.682 22.9198 178.682 22.865C178.682 22.8101 178.703 22.7575 178.742 22.7188C178.781 22.68 178.834 22.6582 178.888 22.6582H196.488C196.543 22.6582 196.595 22.68 196.634 22.7188C196.673 22.7575 196.695 22.8101 196.695 22.865C196.695 22.9198 196.673 22.9724 196.634 23.0112C196.595 23.05 196.543 23.0717 196.488 23.0717Z" fill="#292929"/>
<path d="M201.136 23.0717H200.48C200.425 23.0717 200.372 23.05 200.334 23.0112C200.295 22.9724 200.273 22.9198 200.273 22.865C200.273 22.8101 200.295 22.7575 200.334 22.7188C200.372 22.68 200.425 22.6582 200.48 22.6582H201.136C201.191 22.6582 201.243 22.68 201.282 22.7188C201.321 22.7575 201.343 22.8101 201.343 22.865C201.343 22.9198 201.321 22.9724 201.282 23.0112C201.243 23.05 201.191 23.0717 201.136 23.0717Z" fill="#292929"/>
<path d="M198.832 23.0717H198.176C198.122 23.0717 198.069 23.05 198.03 23.0112C197.992 22.9724 197.97 22.9198 197.97 22.865C197.97 22.8101 197.992 22.7575 198.03 22.7188C198.069 22.68 198.122 22.6582 198.176 22.6582H198.832C198.887 22.6582 198.94 22.68 198.979 22.7188C199.017 22.7575 199.039 22.8101 199.039 22.865C199.039 22.9198 199.017 22.9724 198.979 23.0112C198.94 23.05 198.887 23.0717 198.832 23.0717Z" fill="#292929"/>
<path d="M203.597 23.0717H202.941C202.886 23.0717 202.833 23.05 202.794 23.0112C202.756 22.9724 202.734 22.9198 202.734 22.865C202.734 22.8101 202.756 22.7575 202.794 22.7188C202.833 22.68 202.886 22.6582 202.941 22.6582H203.597C203.652 22.6582 203.704 22.68 203.743 22.7188C203.782 22.7575 203.804 22.8101 203.804 22.865C203.804 22.9198 203.782 22.9724 203.743 23.0112C203.704 23.05 203.652 23.0717 203.597 23.0717Z" fill="#292929"/>
<path d="M208.027 31.4893H166.801V43.8868H208.027V31.4893Z" fill="#4FE0D2"/>
<g opacity="0.69">
<path d="M208.027 31.4893H166.801V43.8868H208.027V31.4893Z" fill="#F4F4F4"/>
</g>
<path d="M208.027 44.0936H166.801C166.774 44.0936 166.747 44.0883 166.722 44.078C166.697 44.0676 166.674 44.0524 166.655 44.0331C166.636 44.0139 166.621 43.9911 166.61 43.966C166.6 43.9409 166.595 43.914 166.595 43.8868V31.4892C166.595 31.4621 166.6 31.4352 166.61 31.4101C166.621 31.3849 166.636 31.3621 166.655 31.3429C166.674 31.3237 166.697 31.3085 166.722 31.2981C166.747 31.2877 166.774 31.2824 166.801 31.2825H208.027C208.082 31.2825 208.135 31.3043 208.174 31.343C208.212 31.3818 208.234 31.4344 208.234 31.4892V43.8868C208.234 43.9417 208.212 43.9943 208.174 44.033C208.135 44.0718 208.082 44.0936 208.027 44.0936ZM167.01 43.6801H207.821V31.696H167.01V43.6801Z" fill="#292929"/>
<path d="M173.064 40.2313C174.469 40.2313 175.607 39.0926 175.607 37.6879C175.607 36.2833 174.469 35.1445 173.064 35.1445C171.659 35.1445 170.521 36.2833 170.521 37.6879C170.521 39.0926 171.659 40.2313 173.064 40.2313Z" fill="#F4F4F4"/>
<path d="M173.064 40.4378C172.52 40.4378 171.988 40.2765 171.536 39.9743C171.084 39.6721 170.731 39.2426 170.523 38.74C170.315 38.2375 170.261 37.6845 170.367 37.151C170.473 36.6175 170.735 36.1275 171.12 35.7429C171.504 35.3583 171.994 35.0964 172.528 34.9903C173.061 34.8842 173.614 34.9387 174.117 35.147C174.619 35.3552 175.049 35.7077 175.351 36.16C175.653 36.6124 175.814 37.1441 175.814 37.6881C175.813 38.4171 175.523 39.1161 175.008 39.6316C174.492 40.1471 173.793 40.437 173.064 40.4378ZM173.064 35.3514C172.602 35.3514 172.15 35.4885 171.766 35.7452C171.382 36.002 171.082 36.3669 170.905 36.7939C170.729 37.2208 170.682 37.6906 170.772 38.1439C170.863 38.5972 171.085 39.0135 171.412 39.3403C171.739 39.6671 172.155 39.8896 172.608 39.9798C173.061 40.07 173.531 40.0237 173.958 39.8468C174.385 39.67 174.75 39.3705 175.007 38.9862C175.264 38.602 175.401 38.1502 175.401 37.6881C175.4 37.0685 175.154 36.4745 174.716 36.0365C174.278 35.5984 173.684 35.352 173.064 35.3514Z" fill="#292929"/>
<path d="M196.488 37.6394H178.888C178.834 37.6394 178.781 37.6176 178.742 37.5788C178.703 37.54 178.682 37.4874 178.682 37.4326C178.682 37.3778 178.703 37.3252 178.742 37.2864C178.781 37.2476 178.834 37.2258 178.888 37.2258H196.488C196.543 37.2258 196.595 37.2476 196.634 37.2864C196.673 37.3252 196.695 37.3778 196.695 37.4326C196.695 37.4874 196.673 37.54 196.634 37.5788C196.595 37.6176 196.543 37.6394 196.488 37.6394Z" fill="#292929"/>
<path d="M201.136 37.6394H200.48C200.425 37.6394 200.372 37.6176 200.334 37.5788C200.295 37.54 200.273 37.4874 200.273 37.4326C200.273 37.3778 200.295 37.3252 200.334 37.2864C200.372 37.2476 200.425 37.2258 200.48 37.2258H201.136C201.191 37.2258 201.243 37.2476 201.282 37.2864C201.321 37.3252 201.343 37.3778 201.343 37.4326C201.343 37.4874 201.321 37.54 201.282 37.5788C201.243 37.6176 201.191 37.6394 201.136 37.6394Z" fill="#292929"/>
<path d="M198.832 37.6394H198.176C198.122 37.6394 198.069 37.6176 198.03 37.5788C197.992 37.54 197.97 37.4874 197.97 37.4326C197.97 37.3778 197.992 37.3252 198.03 37.2864C198.069 37.2476 198.122 37.2258 198.176 37.2258H198.832C198.887 37.2258 198.94 37.2476 198.979 37.2864C199.017 37.3252 199.039 37.3778 199.039 37.4326C199.039 37.4874 199.017 37.54 198.979 37.5788C198.94 37.6176 198.887 37.6394 198.832 37.6394Z" fill="#292929"/>
<path d="M203.597 37.6394H202.941C202.886 37.6394 202.833 37.6176 202.794 37.5788C202.756 37.54 202.734 37.4874 202.734 37.4326C202.734 37.3778 202.756 37.3252 202.794 37.2864C202.833 37.2476 202.886 37.2258 202.941 37.2258H203.597C203.652 37.2258 203.704 37.2476 203.743 37.2864C203.782 37.3252 203.804 37.3778 203.804 37.4326C203.804 37.4874 203.782 37.54 203.743 37.5788C203.704 37.6176 203.652 37.6394 203.597 37.6394Z" fill="#292929"/>
<path d="M164.637 46.6786C164.536 46.6786 164.44 46.6386 164.368 46.5674C164.297 46.4963 164.257 46.3998 164.257 46.2992V0.379386C164.257 0.278767 164.297 0.182268 164.368 0.11112C164.44 0.039971 164.536 0 164.637 0C164.737 0 164.834 0.039971 164.905 0.11112C164.976 0.182268 165.016 0.278767 165.016 0.379386V46.2992C165.016 46.3998 164.976 46.4963 164.905 46.5674C164.834 46.6386 164.737 46.6786 164.637 46.6786Z" fill="#292929"/>
<path d="M222.105 26.68C223.043 26.68 223.803 25.9197 223.803 24.9818C223.803 24.044 223.043 23.2837 222.105 23.2837C221.167 23.2837 220.407 24.044 220.407 24.9818C220.407 25.9197 221.167 26.68 222.105 26.68Z" fill="#F4F4F4"/>
<path d="M222.105 27.0594C221.694 27.0594 221.292 26.9376 220.95 26.7093C220.608 26.481 220.342 26.1565 220.185 25.7768C220.027 25.3971 219.986 24.9793 220.066 24.5762C220.146 24.1731 220.344 23.8028 220.635 23.5122C220.926 23.2215 221.296 23.0236 221.699 22.9435C222.102 22.8633 222.52 22.9045 222.9 23.0618C223.279 23.2191 223.604 23.4855 223.832 23.8273C224.06 24.169 224.182 24.5708 224.182 24.9818C224.182 25.5327 223.962 26.0607 223.573 26.4502C223.183 26.8397 222.655 27.0588 222.105 27.0594ZM222.105 23.6627C221.844 23.6626 221.589 23.7399 221.372 23.8848C221.155 24.0297 220.986 24.2357 220.886 24.4768C220.786 24.7178 220.76 24.9831 220.81 25.239C220.861 25.4949 220.987 25.73 221.171 25.9145C221.356 26.099 221.591 26.2247 221.847 26.2756C222.103 26.3265 222.368 26.3004 222.609 26.2006C222.85 26.1008 223.056 25.9317 223.201 25.7148C223.346 25.4978 223.423 25.2428 223.423 24.9818C223.423 24.6322 223.284 24.2969 223.037 24.0497C222.789 23.8024 222.454 23.6632 222.105 23.6627Z" fill="#292929"/>
<path d="M241.795 26.68C242.733 26.68 243.493 25.9197 243.493 24.9818C243.493 24.044 242.733 23.2837 241.795 23.2837C240.857 23.2837 240.097 24.044 240.097 24.9818C240.097 25.9197 240.857 26.68 241.795 26.68Z" fill="#F4F4F4"/>
<path d="M241.795 27.0594C241.384 27.0594 240.982 26.9375 240.64 26.7091C240.299 26.4808 240.032 26.1563 239.875 25.7766C239.718 25.3968 239.677 24.979 239.757 24.5759C239.837 24.1729 240.035 23.8026 240.326 23.512C240.616 23.2215 240.986 23.0236 241.39 22.9434C241.793 22.8633 242.21 22.9045 242.59 23.0618C242.97 23.2192 243.294 23.4856 243.523 23.8273C243.751 24.1691 243.873 24.5709 243.873 24.9818C243.872 25.5327 243.653 26.0608 243.263 26.4503C242.874 26.8398 242.346 27.0589 241.795 27.0594ZM241.795 23.6627C241.534 23.6627 241.279 23.7401 241.062 23.885C240.845 24.03 240.676 24.236 240.576 24.477C240.476 24.7181 240.45 24.9833 240.501 25.2392C240.552 25.4951 240.677 25.7301 240.862 25.9146C241.046 26.0991 241.281 26.2247 241.537 26.2756C241.793 26.3265 242.058 26.3004 242.299 26.2006C242.541 26.1007 242.747 25.9316 242.891 25.7147C243.036 25.4978 243.114 25.2427 243.114 24.9818C243.113 24.6321 242.974 24.2967 242.727 24.0494C242.48 23.8021 242.144 23.663 241.795 23.6627Z" fill="#292929"/>
<path d="M273.339 77.5765C276.636 77.5765 279.309 74.9037 279.309 71.6065C279.309 68.3093 276.636 65.6365 273.339 65.6365C270.041 65.6365 267.369 68.3093 267.369 71.6065C267.369 74.9037 270.041 77.5765 273.339 77.5765Z" fill="#F4F4F4"/>
<path d="M273.339 77.9559C272.083 77.9562 270.855 77.5841 269.811 76.8866C268.766 76.1891 267.952 75.1975 267.472 74.0374C266.991 72.8772 266.865 71.6005 267.11 70.3687C267.354 69.137 267.959 68.0055 268.847 67.1173C269.735 66.2292 270.866 65.6243 272.098 65.3792C273.33 65.1341 274.606 65.2597 275.767 65.7403C276.927 66.2208 277.919 67.0346 278.616 68.0788C279.314 69.123 279.686 70.3506 279.686 71.6065C279.685 73.2896 279.015 74.9033 277.825 76.0936C276.635 77.2839 275.022 77.9536 273.339 77.9559ZM273.339 66.0159C272.233 66.0156 271.152 66.3432 270.232 66.9573C269.313 67.5714 268.596 68.4445 268.173 69.466C267.749 70.4875 267.638 71.6117 267.854 72.6962C268.069 73.7808 268.602 74.7771 269.383 75.5591C270.165 76.3412 271.161 76.8738 272.246 77.0896C273.33 77.3054 274.455 77.1948 275.476 76.7717C276.498 76.3486 277.371 75.6321 277.985 74.7126C278.6 73.7932 278.928 72.7123 278.928 71.6065C278.926 70.1246 278.337 68.7038 277.289 67.6557C276.241 66.6077 274.821 66.018 273.339 66.0159Z" fill="#292929"/>
<path d="M275.796 74.4435C275.695 74.4435 275.598 74.4035 275.527 74.3323L270.613 69.4174C270.544 69.3458 270.505 69.25 270.506 69.1505C270.507 69.051 270.547 68.9559 270.617 68.8855C270.688 68.8152 270.783 68.7753 270.882 68.7744C270.982 68.7736 271.078 68.8118 271.149 68.8809L276.064 73.7959C276.117 73.8489 276.153 73.9165 276.168 73.9901C276.182 74.0637 276.175 74.14 276.146 74.2093C276.117 74.2786 276.069 74.3378 276.006 74.3795C275.944 74.4212 275.871 74.4435 275.796 74.4435Z" fill="#4FE0D2"/>
<path d="M270.881 74.4435C270.806 74.4435 270.733 74.4212 270.671 74.3795C270.608 74.3378 270.56 74.2786 270.531 74.2093C270.502 74.14 270.495 74.0637 270.509 73.9901C270.524 73.9165 270.56 73.8489 270.613 73.7959L275.528 68.8809C275.599 68.8118 275.695 68.7736 275.794 68.7744C275.894 68.7753 275.989 68.8152 276.059 68.8855C276.13 68.9559 276.17 69.051 276.17 69.1505C276.171 69.25 276.133 69.3458 276.064 69.4174L271.15 74.3323C271.115 74.3676 271.073 74.3956 271.027 74.4147C270.981 74.4338 270.931 74.4436 270.881 74.4435Z" fill="#4FE0D2"/>
<path d="M153.84 177.585H57.0719C57.0349 177.589 56.9977 177.585 56.9624 177.574C56.9271 177.562 56.8947 177.543 56.8672 177.518C56.8397 177.493 56.8177 177.463 56.8026 177.429C56.7876 177.395 56.7798 177.358 56.7798 177.321C56.7798 177.284 56.7876 177.247 56.8026 177.214C56.8177 177.18 56.8397 177.149 56.8672 177.124C56.8947 177.099 56.9271 177.081 56.9624 177.069C56.9977 177.057 57.0349 177.053 57.0719 177.057H153.84C153.905 177.064 153.966 177.094 154.01 177.143C154.054 177.192 154.079 177.255 154.079 177.321C154.079 177.387 154.054 177.451 154.01 177.499C153.966 177.548 153.905 177.579 153.84 177.585Z" fill="#292929"/>
</g>
<defs>
<clipPath id="clip0_725_2021">
<rect width="307" height="177.585" fill="white" transform="translate(0.5)"/>
</clipPath>
</defs>
</svg>
