<svg width="32" height="32" viewBox="0 0 32 32" fill="none" xmlns="http://www.w3.org/2000/svg">
<g id="Icon/Social network/Instagram">
<path id="Instagram" fill-rule="evenodd" clip-rule="evenodd" d="M9.6 0.00012207H22.4C27.7019 0.00012207 32 4.29819 32 9.60012V22.4001C32 27.7021 27.7019 32.0001 22.4 32.0001H9.6C4.29807 32.0001 0 27.7021 0 22.4001V9.60012C0 4.29819 4.29807 0.00012207 9.6 0.00012207ZM25.6 4.80012C26.4 4.80012 27.2 5.60012 27.2 6.40012C27.2 7.20012 26.4 8.00012 25.6 8.00012C24.8 8.00012 24 7.20012 24 6.40012C24 5.60012 24.8 4.80012 25.6 4.80012ZM24 16.0001C24 11.5881 20.412 8.00012 16 8.00012C11.588 8.00012 8 11.5881 8 16.0001C8 20.4121 11.588 24.0001 16 24.0001C20.412 24.0001 24 20.4121 24 16.0001ZM16 11.2001C13.349 11.2001 11.2 13.3492 11.2 16.0001C11.2 18.6511 13.349 20.8001 16 20.8001C18.651 20.8001 20.8 18.6511 20.8 16.0001C20.8 13.3492 18.651 11.2001 16 11.2001Z" fill="white"/>
</g>
</svg>
