<svg width="308" height="238" viewBox="0 0 308 238" fill="none" xmlns="http://www.w3.org/2000/svg">
<g clip-path="url(#clip0_725_1957)">
<path d="M277.56 237.846C282.953 237.858 288.219 236.209 292.64 233.123C297.061 230.037 300.423 225.665 302.267 220.602C310.359 198.177 312.832 161.255 281.22 116.229C246.324 66.524 249.072 18.701 199.968 13.4384C123.044 5.1943 74.9384 68.7144 47.8774 98.5988C4.36354 146.654 4.85558 180.358 0.675559 213.32C0.290918 216.391 0.564757 219.509 1.47889 222.467C2.39302 225.424 3.92651 228.153 5.97751 230.473C8.0285 232.793 10.5501 234.65 13.3747 235.921C16.1993 237.193 19.2623 237.849 22.3602 237.846H277.56Z" fill="#292929"/>
<path d="M65.0581 79.5136C65.0581 79.5136 67.8143 77.5856 66.1598 69.6429L72.1146 67.759C72.1146 67.759 72.3226 75.0395 75.6896 76.9422L65.0581 79.5136Z" fill="#E2B5A3"/>
<path opacity="0.15" d="M74.254 75.5911L68.7104 72.3479L72.6821 71.8145C72.9661 73.1601 73.4992 74.441 74.254 75.5911Z" fill="#0C0C0C"/>
<path d="M62.3159 66.9575C63.0397 69.3387 64.6557 71.4815 66.903 72.0019C69.3616 72.6409 71.9394 72.6691 74.4115 72.0841C81.0156 70.7114 77.8154 55.7168 74.2828 53.165C70.7501 50.6132 61.6847 53.6286 61.1646 58.6933C60.8955 61.3127 61.6266 64.6895 62.3159 66.9575Z" fill="#E2B5A3"/>
<path d="M76.5484 53.4158C76.31 53.1249 75.9991 52.9018 75.647 52.7691C72.4845 51.5262 66.9245 51.6491 64.3839 52.7641C61.4379 54.0573 57.9194 57.0953 59.6746 63.1871C59.7484 63.4436 59.8245 63.6902 59.9014 63.9318C58.9147 63.8867 57.9346 64.1138 57.0685 64.5883C56.2024 65.0627 55.4837 65.7661 54.991 66.6214C54.4984 67.4768 54.2509 68.4511 54.2756 69.4377C54.3003 70.4243 54.5963 71.385 55.1311 72.2147C55.6659 73.0444 56.419 73.711 57.3077 74.1416C58.1965 74.5721 59.1867 74.75 60.1699 74.6557C61.1531 74.5613 62.0914 74.1985 62.8819 73.6069C63.6725 73.0152 64.2848 72.2176 64.6519 71.3014C65.1545 71.6369 65.6879 71.9238 66.2448 72.1583C66.6369 72.3296 66.7034 72.1422 66.7799 71.7216C67.0467 70.2525 66.7869 64.6043 65.9365 60.5834L73.0953 59.4447L73.9064 55.7287L75.3748 59.1628L77.8231 58.8593C77.9108 56.891 77.978 54.6618 76.5484 53.4158Z" fill="#0C0C0C"/>
<path d="M71.5587 63.9041C71.8663 63.9041 72.1157 63.6549 72.1157 63.3475C72.1157 63.0402 71.8663 62.791 71.5587 62.791C71.2511 62.791 71.0017 63.0402 71.0017 63.3475C71.0017 63.6549 71.2511 63.9041 71.5587 63.9041Z" fill="#0C0C0C"/>
<path d="M75.8751 63.0068C76.1827 63.0068 76.4321 62.7577 76.4321 62.4503C76.4321 62.143 76.1827 61.8938 75.8751 61.8938C75.5675 61.8938 75.3181 62.143 75.3181 62.4503C75.3181 62.7577 75.5675 63.0068 75.8751 63.0068Z" fill="#0C0C0C"/>
<path d="M75.1882 61.0585L76.6551 60.8953" stroke="#0C0C0C" stroke-width="1.362" stroke-miterlimit="10" stroke-linecap="round"/>
<path d="M70.2095 62.2354L71.6102 61.7092" stroke="#0C0C0C" stroke-width="1.362" stroke-miterlimit="10" stroke-linecap="round"/>
<path d="M68.8511 65.0553C68.9184 65.3603 68.9246 65.6755 68.8691 65.9829C68.8136 66.2902 68.6975 66.5834 68.5278 66.8456C68.358 67.1078 68.1378 67.3337 67.8799 67.5102C67.6221 67.6868 67.3317 67.8104 67.0257 67.8739C66.7197 67.9375 66.4041 67.9397 66.0972 67.8805C65.7903 67.8212 65.4983 67.7017 65.238 67.5288C64.9777 67.3559 64.7543 67.1332 64.5809 66.8734C64.4074 66.6136 64.2873 66.322 64.2274 66.0155C64.1588 65.7118 64.152 65.3974 64.2076 65.0911C64.2631 64.7848 64.3797 64.4927 64.5506 64.2323C64.7214 63.972 64.9429 63.7486 65.202 63.5756C65.461 63.4026 65.7523 63.2834 66.0584 63.2252C67.7217 62.9648 68.5854 63.7798 68.8511 65.0553Z" fill="#E2B5A3"/>
<g opacity="0.15">
<path d="M74.3928 66.1072C74.3472 66.1127 74.3011 66.1017 74.2629 66.0762C74.2247 66.0507 74.1969 66.0124 74.1846 65.9682C74.1722 65.924 74.1761 65.8768 74.1955 65.8353C74.215 65.7937 74.2487 65.7604 74.2905 65.7415L75.3719 65.2572L74.3686 63.6057C74.3437 63.5622 74.3368 63.5107 74.3494 63.4622C74.3619 63.4138 74.393 63.3721 74.4358 63.3461C74.4787 63.3202 74.53 63.312 74.5789 63.3233C74.6277 63.3346 74.6702 63.3646 74.6972 63.4067L75.812 65.2453C75.8261 65.2686 75.8351 65.2946 75.8384 65.3215C75.8416 65.3485 75.8392 65.3759 75.831 65.4019C75.8229 65.4279 75.8094 65.4518 75.7913 65.4721C75.7733 65.4925 75.7511 65.5088 75.7263 65.5199L74.4462 66.0929C74.4292 66.1002 74.4112 66.105 74.3928 66.1072Z" fill="#0C0C0C"/>
</g>
<path d="M72.3542 67.6657C72.3542 67.6657 74.4212 67.6272 75.7897 66.9517C75.7897 66.9517 75.9434 68.2959 74.3466 68.6278C72.7498 68.9596 72.3542 67.6657 72.3542 67.6657Z" fill="#DEE8F5"/>
<path d="M88.7914 38.2391L93.0609 36.6613C93.0609 36.6613 93.5991 30.8019 88.6749 27.7036C87.0427 26.6769 85.8518 28.502 86.1509 29.0981C87.1392 31.0684 88.3112 32.8813 88.2878 34.7751C87.6566 34.1863 86.7463 33.4309 86.478 33.7074C85.7722 34.4302 88.7914 38.2391 88.7914 38.2391Z" fill="#E2B5A3"/>
<path d="M25.5501 168.337L27.1511 160.432C27.175 160.437 27.2061 160.443 27.243 160.452C26.6629 160.306 23.1718 159.185 20.2695 158.23L17.7451 165.892C24.591 168.143 25.3129 168.289 25.5501 168.337Z" fill="#E2B5A3"/>
<path d="M12.3616 174.955C12.3106 175.166 12.3036 175.385 12.3412 175.599C12.3787 175.812 12.46 176.016 12.5798 176.197C12.6996 176.378 12.8555 176.532 13.0377 176.65C13.2199 176.768 13.4244 176.847 13.6386 176.882C13.9355 176.931 14.2402 176.895 14.5169 176.776C14.7936 176.658 15.0308 176.463 15.2004 176.215L20.5052 167.853C20.6073 167.691 20.6731 167.508 20.6981 167.318C20.7231 167.128 20.7067 166.935 20.6501 166.752C20.089 165.285 20.014 163.676 20.436 162.163C20.8132 160.997 21.511 159.96 22.4499 159.17C22.5402 159.103 22.6095 159.011 22.6496 158.906C22.6897 158.8 22.6989 158.686 22.6763 158.575C22.6537 158.465 22.6002 158.363 22.5219 158.282C22.4436 158.201 22.3438 158.144 22.2343 158.117L17.7732 157.019C17.6417 156.986 17.505 156.98 17.371 157.001C17.2371 157.021 17.1085 157.068 16.9927 157.138C16.8769 157.208 16.7761 157.301 16.6961 157.41C16.6161 157.519 16.5585 157.643 16.5266 157.775L12.3616 174.955Z" fill="#0C0C0C"/>
<path d="M85.0395 223.625C87.8979 217.014 88.1082 216.308 88.1774 216.077L80.4404 213.776C80.4474 213.752 80.4562 213.722 80.4689 213.686C80.2709 214.25 78.8406 217.624 77.6289 220.426L85.0395 223.625Z" fill="#E2B5A3"/>
<path d="M93.5913 229.795C93.7971 229.865 94.015 229.892 94.2316 229.873C94.4481 229.855 94.6586 229.793 94.8498 229.69C95.041 229.587 95.2089 229.445 95.3429 229.274C95.477 229.103 95.5742 228.907 95.6287 228.696C95.7041 228.406 95.6947 228.099 95.6018 227.813C95.5088 227.528 95.3361 227.274 95.104 227.083L87.2437 221.053C87.0911 220.937 86.9153 220.856 86.7282 220.814C86.5411 220.772 86.3472 220.771 86.1596 220.811C84.6466 221.237 83.0366 221.168 81.566 220.612C80.4369 220.132 79.4657 219.345 78.7629 218.339C78.7037 218.244 78.6184 218.167 78.517 218.117C78.4155 218.068 78.3022 218.048 78.1901 218.061C78.0781 218.074 77.9719 218.118 77.884 218.189C77.7962 218.259 77.7302 218.353 77.6939 218.46L76.1989 222.8C76.1548 222.928 76.1364 223.064 76.1448 223.199C76.1532 223.334 76.1883 223.466 76.248 223.588C76.3077 223.709 76.3908 223.818 76.4926 223.907C76.5944 223.997 76.7129 224.065 76.8413 224.109L93.5913 229.795Z" fill="#0C0C0C"/>
<path d="M102.116 172.153C101.72 163.409 93.6175 123.624 92.7591 119.334L63.6835 120.649C63.6835 120.649 54.0441 158.104 53.6524 159.147L25.7127 157.17L22.8481 171.089L57.4015 176.911C59.2419 177.361 61.1822 177.152 62.8838 176.319C64.5854 175.486 65.9401 174.082 66.7114 172.353C66.7114 172.353 77.6981 140.084 77.9199 139.489L86.9619 169.428L76.7544 215.445L90.3354 219.666C90.3354 219.666 102.277 175.69 102.116 172.153Z" fill="#0C0C0C"/>
<path d="M36.985 49.8347L32.4414 50.1147C32.4414 50.1147 30.0581 44.2576 33.3086 39.4374C34.3849 37.8393 36.2139 39.028 36.1812 39.6944C36.074 41.8955 35.2587 44.7415 36.0452 46.4641C36.3842 45.671 36.9124 44.6144 37.2687 44.7572C38.2067 45.1317 36.985 49.8347 36.985 49.8347Z" fill="#E2B5A3"/>
<path d="M101.837 63.4106L87.4793 81.6541C89.0207 86.7124 88.4979 94.0405 89.4474 99.8976C91.4386 112.211 95.1635 113.947 94.1794 117.988C93.2261 121.905 62.3123 128.838 60.7785 122.497C59.806 118.464 62.7812 114.277 61.3974 106.331C60.2865 99.9322 54.186 92.9305 54.4166 86.793L36.511 76.4922C35.9888 76.1907 35.5377 75.7805 35.1881 75.2894C34.8386 74.7984 34.5989 74.238 34.4852 73.6462L29.7686 48.9195L38.0025 47.3486L42.3617 70.1933L59.0333 79.7875C60.4979 79.0062 62.0809 78.4704 63.7192 78.2013C63.723 78.2013 63.7384 78.1974 63.773 78.1936C64.4227 80.2676 68.6665 83.2365 73.2678 82.1073C76.7198 81.27 77.3233 78.04 77.0542 75.9429C77.0311 75.9468 77.0042 75.9506 76.9773 75.9545C77.6539 75.8469 78.0729 75.7855 78.119 75.7778C79.2228 75.6193 80.3434 75.6168 81.448 75.7701L93.8758 59.977L86.5605 36.9748L94.5485 34.436L102.536 59.5545C102.744 60.2055 102.788 60.8973 102.667 61.5695C102.545 62.2417 102.26 62.8738 101.837 63.4106Z" fill="#4FE0D2"/>
<path d="M73.2678 82.106C68.6664 83.2352 64.4226 80.2663 63.7729 78.1923V78.1885C64.6532 78.0387 76.1739 76.0799 76.3584 76.0492C76.6082 76.0108 76.8158 75.9762 76.9773 75.9532C77.0042 75.9493 77.0311 75.9455 77.0541 75.9417C77.3232 78.0387 76.7197 81.2699 73.2678 82.106Z" fill="#E2B5A3"/>
<path d="M184.531 237.847H228.293C231.503 235.287 231.724 229.52 228.397 226.945C225.832 224.96 221.955 225.491 219.545 227.555C219.995 226.018 220.004 224.386 219.57 222.844C218.787 220.067 217.044 217.247 214.384 216.123C207.595 213.261 202.772 219.257 201.805 222.61C200.067 220.057 196.178 218.707 193.738 220.426C190.646 222.603 190.786 226.036 193.252 228.5C189.967 227.888 187.492 228.36 185.213 230.805C183.477 232.666 183.212 235.836 184.531 237.847Z" fill="#4FE0D2"/>
<path d="M270.626 156.079C269.141 155.593 267.616 156.138 266.158 157.246C268.08 152.399 268.872 148.022 265.588 147.825C263.29 147.687 261.529 149.448 260.192 151.952C259.722 147.549 258.508 144.266 255.79 145.354C252.806 146.55 252.352 150.646 252.805 154.932C251.49 152.743 250.076 151.522 248.79 152.806C244.954 156.638 254.369 167.439 254.369 167.439H256.706L258.04 168.887C257.771 169.457 257.622 169.797 257.622 169.797L259.317 173.243C259.317 173.243 276.79 158.094 270.626 156.079Z" fill="#4FE0D2"/>
<path d="M266.434 180.961H253.2L250.985 165.526H268.649L266.434 180.961Z" fill="#8DDBE0"/>
<path d="M247.579 185.77L237.084 236.912C237.017 237.179 236.863 237.416 236.645 237.585C236.428 237.754 236.16 237.846 235.885 237.846C235.697 237.846 235.511 237.804 235.342 237.721C235.174 237.639 235.026 237.519 234.91 237.371C234.794 237.223 234.714 237.05 234.675 236.866C234.637 236.683 234.64 236.492 234.686 236.31L245.33 184.578L247.579 185.77Z" fill="#8DDBE0"/>
<path d="M272.236 185.688L282.73 236.83C282.797 237.097 282.951 237.334 283.169 237.504C283.386 237.673 283.653 237.765 283.929 237.765C284.117 237.765 284.303 237.722 284.472 237.64C284.64 237.557 284.788 237.437 284.904 237.289C285.02 237.141 285.1 236.969 285.139 236.785C285.178 236.601 285.174 236.411 285.128 236.229L274.484 184.496L272.236 185.688Z" fill="#8DDBE0"/>
<path d="M283.265 180.768H236.549C235.367 180.768 234.41 181.725 234.41 182.905V187.609C234.41 188.789 235.367 189.746 236.549 189.746H283.265C284.446 189.746 285.404 188.789 285.404 187.609V182.905C285.404 181.725 284.446 180.768 283.265 180.768Z" fill="#DEE8F5"/>
<path d="M260.872 47.3924L261.218 44.7423L242.613 42.3226L170.643 32.9685L152.038 30.5488L151.692 33.1989C151.894 33.2155 152.091 33.2729 152.27 33.3676C152.449 33.4622 152.608 33.5923 152.735 33.7498C152.863 33.9073 152.957 34.0891 153.012 34.284C153.067 34.479 153.082 34.6831 153.056 34.8841C153.03 35.085 152.964 35.2786 152.861 35.4531C152.758 35.6276 152.62 35.7794 152.457 35.8993C152.293 36.0192 152.107 36.1047 151.91 36.1506C151.712 36.1966 151.507 36.2021 151.308 36.1667L151.021 38.3667C151.223 38.3838 151.419 38.4416 151.598 38.5366C151.777 38.6316 151.935 38.7618 152.062 38.9193C152.189 39.0769 152.283 39.2585 152.337 39.4533C152.392 39.648 152.407 39.8519 152.381 40.0526C152.355 40.2532 152.288 40.4465 152.185 40.6207C152.082 40.7949 151.945 40.9465 151.782 41.0663C151.619 41.1861 151.433 41.2716 151.236 41.3177C151.039 41.3638 150.834 41.3695 150.635 41.3344L150.348 43.5344C150.55 43.5515 150.746 43.6093 150.925 43.7043C151.104 43.7993 151.262 43.9295 151.389 44.087C151.516 44.2446 151.61 44.4262 151.664 44.621C151.719 44.8158 151.734 45.0196 151.708 45.2203C151.682 45.4209 151.615 45.6142 151.512 45.7884C151.409 45.9627 151.272 46.1143 151.109 46.234C150.946 46.3538 150.76 46.4394 150.563 46.4854C150.365 46.5315 150.161 46.5372 149.962 46.5021L149.642 48.9517L149.665 48.9544C151.81 49.247 153.752 50.3756 155.067 52.0938C156.382 53.812 156.964 55.9803 156.685 58.1254C156.405 60.2705 155.288 62.218 153.577 63.543C151.866 64.8679 149.699 65.4627 147.551 65.1973L147.529 65.1942L147.175 67.9127C147.376 67.9299 147.573 67.9877 147.751 68.0826C147.93 68.1776 148.088 68.3078 148.215 68.4654C148.342 68.6229 148.436 68.8046 148.491 68.9993C148.546 69.1941 148.56 69.398 148.534 69.5986C148.508 69.7993 148.442 69.9925 148.339 70.1668C148.236 70.341 148.098 70.4926 147.935 70.6124C147.772 70.7322 147.586 70.8177 147.389 70.8638C147.192 70.9098 146.987 70.9155 146.788 70.8805L146.502 73.0804C146.704 73.0961 146.902 73.153 147.082 73.2475C147.263 73.342 147.422 73.4721 147.55 73.6301C147.678 73.788 147.773 73.9704 147.828 74.1661C147.884 74.3619 147.899 74.5668 147.872 74.7685C147.846 74.9701 147.779 75.1643 147.675 75.3392C147.571 75.514 147.432 75.6659 147.267 75.7855C147.103 75.905 146.915 75.9899 146.717 76.0348C146.518 76.0797 146.313 76.0837 146.112 76.0466L145.826 78.2466C146.028 78.2632 146.225 78.3205 146.404 78.4152C146.583 78.5099 146.742 78.64 146.869 78.7975C146.997 78.955 147.091 79.1368 147.146 79.3317C147.201 79.5267 147.216 79.7308 147.19 79.9317C147.164 80.1327 147.098 80.3263 146.995 80.5007C146.892 80.6752 146.754 80.827 146.591 80.9469C146.427 81.0668 146.241 81.1524 146.044 81.1983C145.846 81.2443 145.641 81.2497 145.442 81.2144L145.131 83.5975L163.736 86.0172L235.703 95.3736L254.31 97.7933L254.62 95.412C254.419 95.3944 254.223 95.3362 254.045 95.241C253.866 95.1458 253.709 95.0155 253.583 94.8581C253.456 94.7006 253.363 94.5192 253.308 94.3248C253.253 94.1303 253.239 93.9268 253.265 93.7266C253.291 93.5263 253.357 93.3333 253.46 93.1593C253.562 92.9853 253.699 92.8339 253.862 92.7141C254.025 92.5943 254.21 92.5086 254.407 92.4621C254.603 92.4157 254.808 92.4095 255.007 92.4439L255.293 90.2443C255.091 90.2272 254.895 90.1695 254.716 90.0746C254.538 89.9797 254.38 89.8496 254.253 89.6922C254.126 89.5348 254.032 89.3532 253.977 89.1586C253.922 88.9639 253.907 88.7602 253.933 88.5596C253.959 88.359 254.025 88.1657 254.128 87.9915C254.231 87.8172 254.368 87.6655 254.531 87.5456C254.694 87.4257 254.88 87.34 255.077 87.2937C255.274 87.2474 255.478 87.2414 255.678 87.2762L255.964 85.0766C255.763 85.0595 255.566 85.0018 255.388 84.9069C255.209 84.812 255.051 84.6819 254.924 84.5245C254.797 84.367 254.703 84.1855 254.648 83.9909C254.593 83.7962 254.578 83.5924 254.604 83.3919C254.63 83.1913 254.697 82.998 254.799 82.8237C254.902 82.6495 255.039 82.4978 255.202 82.3779C255.365 82.258 255.551 82.1723 255.748 82.126C255.945 82.0797 256.149 82.0737 256.349 82.1085L256.703 79.3904L256.681 79.3873C255.613 79.2486 254.584 78.9012 253.651 78.3649C252.718 77.8287 251.9 77.114 251.243 76.2618C250.586 75.4096 250.104 74.4365 249.824 73.3981C249.544 72.3597 249.471 71.2764 249.61 70.2099C249.748 69.1434 250.096 68.1146 250.633 67.1824C251.17 66.2502 251.885 65.4327 252.738 64.7766C253.591 64.1206 254.565 63.6388 255.604 63.3588C256.643 63.0788 257.728 63.0061 258.795 63.1448L258.817 63.1475L259.136 60.6979C258.934 60.6813 258.738 60.624 258.558 60.5293C258.379 60.4346 258.221 60.3045 258.093 60.147C257.966 59.9895 257.872 59.8077 257.816 59.6128C257.761 59.4178 257.746 59.2137 257.772 59.0128C257.798 58.8118 257.865 58.6182 257.968 58.4438C258.071 58.2693 258.208 58.1175 258.372 57.9976C258.535 57.8777 258.721 57.7921 258.919 57.7462C259.116 57.7002 259.321 57.6948 259.521 57.7301L259.808 55.5302C259.605 55.5136 259.409 55.4562 259.23 55.3616C259.05 55.2669 258.892 55.1368 258.764 54.9793C258.637 54.8218 258.543 54.64 258.488 54.4451C258.432 54.2501 258.417 54.046 258.443 53.845C258.469 53.6441 258.536 53.4505 258.639 53.276C258.742 53.1015 258.879 52.9498 259.043 52.8298C259.206 52.7099 259.392 52.6244 259.59 52.5785C259.787 52.5325 259.992 52.527 260.192 52.5624L260.478 50.3624C260.277 50.3453 260.08 50.2875 259.902 50.1925C259.723 50.0975 259.565 49.9673 259.438 49.8098C259.311 49.6522 259.217 49.4706 259.162 49.2758C259.107 49.0811 259.092 48.8772 259.119 48.6766C259.145 48.4759 259.211 48.2826 259.314 48.1084C259.417 47.9342 259.554 47.7826 259.718 47.6628C259.881 47.543 260.067 47.4575 260.264 47.4114C260.461 47.3653 260.666 47.3596 260.865 47.3947L260.872 47.3924Z" fill="#DEE8F5"/>
<path d="M243.944 91.8387C243.922 91.8408 243.9 91.8408 243.879 91.8387L156.734 80.5085C156.693 80.5031 156.653 80.4896 156.616 80.4688C156.58 80.4479 156.548 80.4201 156.522 80.387C156.497 80.3538 156.478 80.3159 156.467 80.2755C156.456 80.235 156.453 80.1928 156.459 80.1513L162.108 36.7801C162.118 36.6963 162.162 36.6202 162.229 36.5686C162.296 36.5171 162.381 36.4942 162.465 36.5051L249.61 47.8353C249.651 47.8407 249.691 47.8542 249.728 47.8751C249.764 47.896 249.796 47.9239 249.821 47.9571C249.847 47.9903 249.866 48.0282 249.877 48.0687C249.888 48.1091 249.89 48.1513 249.885 48.1929L244.237 91.5633C244.227 91.636 244.193 91.703 244.139 91.7532C244.086 91.8034 244.017 91.8336 243.944 91.8387ZM157.133 79.9162L243.646 91.1635L249.21 48.426L162.699 37.1784L157.133 79.9162Z" fill="#292929"/>
<path d="M195.285 113.729C195.066 113.723 194.858 113.631 194.707 113.473C194.556 113.314 194.475 113.103 194.48 112.884L194.864 97.8789C194.87 97.6599 194.962 97.4521 195.121 97.3012C195.28 97.1503 195.493 97.0686 195.712 97.0742C195.931 97.0798 196.139 97.1722 196.29 97.331C196.441 97.4899 196.523 97.7021 196.517 97.9211L196.133 112.926C196.13 113.035 196.106 113.141 196.061 113.24C196.017 113.339 195.954 113.429 195.875 113.503C195.796 113.578 195.704 113.636 195.602 113.675C195.501 113.713 195.393 113.732 195.285 113.729Z" fill="#4FE0D2"/>
<path d="M222.671 106.922C222.562 106.92 222.456 106.895 222.357 106.851C222.258 106.807 222.169 106.744 222.094 106.666L211.746 95.7842C211.597 95.6251 211.518 95.4138 211.524 95.1964C211.531 94.979 211.623 94.773 211.781 94.6232C211.939 94.4734 212.15 94.3919 212.367 94.3964C212.585 94.4009 212.792 94.4911 212.943 94.6474L223.29 105.529C223.403 105.647 223.478 105.796 223.506 105.957C223.534 106.118 223.513 106.283 223.447 106.433C223.38 106.582 223.271 106.708 223.133 106.795C222.995 106.882 222.834 106.927 222.671 106.922Z" fill="#4FE0D2"/>
<path d="M168.284 105.53C168.12 105.526 167.962 105.473 167.828 105.379C167.695 105.285 167.592 105.154 167.534 105.001C167.475 104.849 167.463 104.683 167.499 104.523C167.535 104.364 167.617 104.219 167.736 104.107L178.627 93.769C178.705 93.6917 178.798 93.6308 178.9 93.5898C179.002 93.5487 179.111 93.5285 179.221 93.5301C179.33 93.5318 179.439 93.5553 179.54 93.5994C179.64 93.6435 179.731 93.7072 179.807 93.7868C179.883 93.8665 179.942 93.9604 179.981 94.0631C180.02 94.1658 180.038 94.2753 180.034 94.385C180.03 94.4948 180.004 94.6027 179.958 94.7023C179.911 94.802 179.846 94.8914 179.765 94.9654L168.874 105.304C168.795 105.378 168.703 105.437 168.601 105.476C168.5 105.515 168.392 105.533 168.284 105.53Z" fill="#4FE0D2"/>
<path d="M204.01 0.00390232C204.228 0.0243382 204.429 0.130503 204.569 0.299045C204.708 0.467588 204.776 0.684703 204.755 0.902636L203.347 15.8466C203.324 16.0625 203.217 16.2606 203.049 16.3981C202.881 16.5356 202.665 16.6014 202.449 16.5812C202.232 16.5609 202.033 16.4564 201.893 16.2901C201.753 16.1239 201.685 15.9093 201.702 15.693L203.11 0.74939C203.12 0.641377 203.151 0.536383 203.202 0.440423C203.253 0.344463 203.322 0.259422 203.405 0.190172C203.489 0.120922 203.585 0.0688227 203.689 0.0368594C203.793 0.00489617 203.902 -0.00630337 204.01 0.00390232Z" fill="#4FE0D2"/>
<path d="M176.223 4.92879C176.331 4.93878 176.436 4.97001 176.532 5.0207C176.628 5.07139 176.713 5.14053 176.782 5.22415L186.362 16.7848C186.502 16.9534 186.569 17.1705 186.549 17.3884C186.528 17.6062 186.422 17.8071 186.253 17.9466C186.084 18.0862 185.867 18.153 185.649 18.1325C185.431 18.112 185.23 18.0057 185.09 17.8371L175.51 6.27651C175.405 6.15079 175.341 5.99703 175.324 5.83467C175.307 5.67231 175.339 5.50865 175.416 5.36436C175.492 5.22008 175.609 5.10165 175.753 5.02405C175.897 4.94646 176.06 4.91317 176.223 4.92841V4.92879Z" fill="#4FE0D2"/>
<path d="M230.389 10.0244C230.552 10.0394 230.707 10.1024 230.834 10.2055C230.961 10.3087 231.055 10.4473 231.103 10.6037C231.151 10.7601 231.152 10.9273 231.105 11.0841C231.057 11.2408 230.965 11.38 230.838 11.4839L219.268 21.0558C219.184 21.1249 219.088 21.1769 218.984 21.2088C218.88 21.2407 218.771 21.2519 218.663 21.2417C218.555 21.2316 218.451 21.2002 218.355 21.1496C218.259 21.0989 218.174 21.0298 218.105 20.9464C218.036 20.8629 217.984 20.7666 217.952 20.6631C217.92 20.5595 217.909 20.4507 217.919 20.3428C217.929 20.2349 217.96 20.1301 218.011 20.0343C218.062 19.9385 218.131 19.8536 218.214 19.7845L229.785 10.2126C229.868 10.1431 229.964 10.0906 230.068 10.0583C230.172 10.026 230.281 10.0145 230.389 10.0244Z" fill="#4FE0D2"/>
<path d="M253.235 32.9559L253.434 30.1963L234.048 28.8025L159.071 23.4116L139.685 22.0178L139.487 24.777C139.691 24.7905 139.89 24.8442 140.073 24.9349C140.256 25.0257 140.42 25.1518 140.554 25.3059C140.688 25.4599 140.791 25.639 140.856 25.8329C140.92 26.0267 140.946 26.2313 140.931 26.4351C140.917 26.6389 140.862 26.8378 140.77 27.0203C140.678 27.2029 140.551 27.3654 140.396 27.4987C140.241 27.632 140.061 27.7333 139.867 27.7969C139.672 27.8605 139.467 27.8851 139.264 27.8692L139.099 30.161C139.303 30.1742 139.502 30.2276 139.686 30.3183C139.869 30.4089 140.033 30.5349 140.168 30.689C140.302 30.8431 140.405 31.0223 140.47 31.2163C140.535 31.4102 140.561 31.6151 140.546 31.819C140.531 32.023 140.476 32.2221 140.384 32.4047C140.292 32.5874 140.165 32.7501 140.01 32.8834C139.855 33.0167 139.674 33.118 139.48 33.1814C139.285 33.2449 139.08 33.2693 138.876 33.2531L138.711 35.5449C138.915 35.5581 139.115 35.6116 139.298 35.7022C139.482 35.7928 139.645 35.9188 139.78 36.073C139.914 36.2271 140.017 36.4063 140.082 36.6002C140.147 36.7942 140.173 36.999 140.158 37.203C140.143 37.407 140.088 37.606 139.996 37.7887C139.904 37.9714 139.777 38.134 139.622 38.2673C139.467 38.4006 139.287 38.5019 139.092 38.5654C138.897 38.6289 138.692 38.6532 138.488 38.6371L138.304 41.1893H138.328C140.571 41.3536 142.658 42.401 144.13 44.1015C145.601 45.802 146.337 48.0165 146.175 50.2586C146.014 52.5007 144.968 54.587 143.268 56.0595C141.568 57.5319 139.353 58.27 137.109 58.1116H137.086L136.881 60.9434C137.086 60.9566 137.285 61.01 137.469 61.1007C137.652 61.1913 137.816 61.3173 137.95 61.4714C138.085 61.6255 138.188 61.8047 138.253 61.9987C138.317 62.1926 138.343 62.3975 138.329 62.6014C138.314 62.8054 138.259 63.0045 138.167 63.1871C138.075 63.3698 137.948 63.5325 137.793 63.6658C137.637 63.7991 137.457 63.9004 137.263 63.9638C137.068 64.0273 136.863 64.0517 136.659 64.0355L136.494 66.3273C136.698 66.3408 136.897 66.3945 137.081 66.4853C137.264 66.576 137.427 66.7021 137.561 66.8562C137.696 67.0103 137.798 67.1894 137.863 67.3832C137.928 67.577 137.954 67.7816 137.939 67.9854C137.924 68.1892 137.869 68.3881 137.777 68.5706C137.685 68.7532 137.558 68.9157 137.403 69.049C137.248 69.1823 137.069 69.2836 136.874 69.3472C136.68 69.4108 136.475 69.4354 136.271 69.4195L136.106 71.7113C136.31 71.7245 136.51 71.7779 136.693 71.8686C136.877 71.9592 137.041 72.0852 137.175 72.2393C137.31 72.3934 137.412 72.5726 137.477 72.7666C137.542 72.9605 137.568 73.1654 137.553 73.3694C137.539 73.5733 137.484 73.7724 137.392 73.955C137.3 74.1377 137.172 74.3004 137.017 74.4337C136.862 74.567 136.682 74.6683 136.487 74.7318C136.293 74.7952 136.088 74.8196 135.883 74.8035L135.704 77.2861L155.09 78.6799L230.067 84.0708L249.452 85.4646L249.631 82.9819C249.427 82.9684 249.227 82.9148 249.044 82.824C248.861 82.7332 248.698 82.6072 248.563 82.4531C248.429 82.299 248.326 82.1199 248.262 81.9261C248.197 81.7323 248.171 81.5276 248.186 81.3238C248.201 81.12 248.255 80.9211 248.347 80.7386C248.439 80.5561 248.566 80.3935 248.721 80.2602C248.876 80.127 249.056 80.0256 249.251 79.962C249.445 79.8985 249.65 79.8739 249.854 79.8897L250.019 77.598C249.815 77.5845 249.615 77.5308 249.432 77.44C249.249 77.3493 249.085 77.2232 248.951 77.0691C248.817 76.915 248.714 76.7359 248.65 76.5421C248.585 76.3483 248.559 76.1437 248.574 75.9399C248.588 75.7361 248.643 75.5372 248.735 75.3547C248.827 75.1721 248.954 75.0096 249.109 74.8763C249.264 74.743 249.444 74.6417 249.638 74.5781C249.833 74.5145 250.038 74.4899 250.242 74.5058L250.407 72.214C250.202 72.2008 250.003 72.1474 249.819 72.0567C249.636 71.9661 249.472 71.8401 249.337 71.686C249.203 71.5319 249.1 71.3527 249.035 71.1587C248.97 70.9648 248.945 70.7599 248.959 70.5559C248.974 70.352 249.029 70.1529 249.121 69.9702C249.213 69.7876 249.34 69.6249 249.495 69.4916C249.651 69.3583 249.831 69.257 250.025 69.1935C250.22 69.1301 250.425 69.1057 250.629 69.1218L250.833 66.2901H250.81C248.564 66.1286 246.474 65.0822 245 63.3812C243.527 61.6802 242.789 59.4639 242.951 57.2198C243.113 54.9757 244.16 52.8877 245.862 51.415C247.565 49.9424 249.783 49.2059 252.029 49.3674H252.052L252.236 46.8152C251.826 46.7857 251.444 46.5946 251.174 46.2838C250.905 45.973 250.77 45.5681 250.8 45.1581C250.829 44.7481 251.021 44.3666 251.332 44.0976C251.643 43.8285 252.048 43.6939 252.458 43.7234L252.624 41.4312C252.421 41.4166 252.222 41.3622 252.04 41.271C251.858 41.1798 251.696 41.0537 251.562 40.8998C251.429 40.746 251.327 40.5673 251.263 40.3742C251.199 40.1811 251.173 39.9772 251.188 39.7742C251.202 39.5711 251.257 39.373 251.348 39.191C251.439 39.0091 251.566 38.8468 251.72 38.7136C251.874 38.5804 252.052 38.4788 252.246 38.4146C252.439 38.3504 252.643 38.3248 252.846 38.3394L253.011 36.0473C252.808 36.0327 252.61 35.9782 252.428 35.887C252.246 35.7958 252.083 35.6696 251.95 35.5157C251.817 35.3619 251.715 35.1832 251.651 34.9901C251.586 34.7969 251.561 34.593 251.576 34.39C251.59 34.187 251.645 33.9889 251.736 33.8069C251.827 33.6249 251.953 33.4627 252.108 33.3295C252.262 33.1963 252.44 33.0947 252.634 33.0305C252.827 32.9664 253.031 32.9409 253.234 32.9555L253.235 32.9559Z" fill="#4FE0D2"/>
<path d="M231.874 75.9314L154.82 70.3633C154.783 70.3608 154.747 70.3511 154.714 70.3346C154.681 70.3181 154.651 70.2953 154.627 70.2673C154.603 70.2393 154.584 70.2068 154.573 70.1716C154.561 70.1364 154.556 70.0993 154.559 70.0623L157.321 31.5289C157.323 31.4919 157.333 31.4557 157.349 31.4225C157.366 31.3893 157.389 31.3596 157.416 31.3353C157.444 31.3109 157.477 31.2923 157.512 31.2806C157.547 31.2688 157.584 31.2642 157.621 31.2668L234.675 36.835C234.711 36.8374 234.747 36.8472 234.781 36.8636C234.814 36.8801 234.843 36.903 234.867 36.931C234.892 36.959 234.91 36.9915 234.922 37.0266C234.934 37.0618 234.938 37.099 234.936 37.136L232.174 75.6694C232.171 75.7064 232.161 75.7425 232.145 75.7756C232.129 75.8088 232.106 75.8384 232.078 75.8628C232.05 75.8871 232.018 75.9057 231.983 75.9175C231.948 75.9293 231.911 75.934 231.874 75.9314ZM155.14 69.8229L231.635 75.3494L234.356 37.3803L157.862 31.8522L155.14 69.8229Z" fill="#DEE8F5"/>
</g>
<defs>
<clipPath id="clip0_725_1957">
<rect width="307" height="237.846" fill="white" transform="translate(0.5)"/>
</clipPath>
</defs>
</svg>
