<svg width="24" height="24" viewBox="0 0 24 24" fill="none" xmlns="http://www.w3.org/2000/svg">
<g id="prime:minus">
<rect x="0.5" y="0.5" width="23" height="23" rx="7.5" fill="#1F1F1F" fill-opacity="0.5"/>
<rect x="0.5" y="0.5" width="23" height="23" rx="7.5" stroke="#4FE0D2"/>
<path id="Vector" d="M18.2222 13H5.77778C5.5715 13 5.37367 12.8946 5.22781 12.7071C5.08194 12.5196 5 12.2652 5 12C5 11.7348 5.08194 11.4804 5.22781 11.2929C5.37367 11.1054 5.5715 11 5.77778 11H18.2222C18.4285 11 18.6263 11.1054 18.7722 11.2929C18.9181 11.4804 19 11.7348 19 12C19 12.2652 18.9181 12.5196 18.7722 12.7071C18.6263 12.8946 18.4285 13 18.2222 13Z" fill="white"/>
</g>
</svg>
