<svg width="17" height="22" viewBox="0 0 17 22" fill="none" xmlns="http://www.w3.org/2000/svg">
<g id="fa6-brands:stripe-s" clip-path="url(#clip0_725_1949)">
<path id="Vector" d="M7.17305 6.64297C7.17305 5.68477 7.97227 5.31523 9.25273 5.31523C11.1176 5.31523 13.4852 5.88672 15.35 6.89219V1.12148C13.3176 0.309375 11.2895 0 9.25703 0C4.28555 0 0.972656 2.59531 0.972656 6.93516C0.972656 13.7199 10.2883 12.6199 10.2883 15.5461C10.2883 16.6805 9.3043 17.0457 7.93789 17.0457C5.90977 17.0457 3.28867 16.2078 1.23047 15.0906V20.6121C3.34748 21.5254 5.62799 21.999 7.93359 22.0043C13.0297 22.0043 16.5402 19.8129 16.5402 15.4043C16.5402 8.09102 7.17305 9.40156 7.17305 6.64297Z" fill="#807AFF"/>
</g>
<defs>
<clipPath id="clip0_725_1949">
<rect width="16.5" height="22" fill="white" transform="translate(0.5)"/>
</clipPath>
</defs>
</svg>
